<mxfile host="app.diagrams.net" modified="2022-03-24T04:57:21.715Z" agent="5.0 (Windows NT 10.0; Win64; x64) AppleWebKit/537.36 (KHTML, like Gecko) Chrome/98.0.4758.109 Safari/537.36 OPR/84.0.4316.43" etag="c5O-qaPpl80ADlusQU9n" version="17.1.3" type="github">
  <diagram id="cLq7WQj-2LX5n-XoDZsG" name="Page-1">
    <mxGraphModel dx="827" dy="1652" grid="1" gridSize="10" guides="1" tooltips="1" connect="1" arrows="1" fold="1" page="1" pageScale="1" pageWidth="1600" pageHeight="1200" math="0" shadow="0">
      <root>
        <mxCell id="0" />
        <mxCell id="1" parent="0" />
        <mxCell id="I3eww4QS5JIf8gdz_hNe-1" value="(" style="rounded=0;whiteSpace=wrap;html=1;" vertex="1" parent="1">
          <mxGeometry x="80" y="50" width="120" height="20" as="geometry" />
        </mxCell>
        <mxCell id="I3eww4QS5JIf8gdz_hNe-4" value="3" style="text;html=1;strokeColor=none;fillColor=none;align=center;verticalAlign=middle;whiteSpace=wrap;rounded=0;" vertex="1" parent="1">
          <mxGeometry x="130" y="15" width="60" height="30" as="geometry" />
        </mxCell>
        <mxCell id="I3eww4QS5JIf8gdz_hNe-5" value="(" style="rounded=0;whiteSpace=wrap;html=1;" vertex="1" parent="1">
          <mxGeometry x="220" y="52.5" width="120" height="20" as="geometry" />
        </mxCell>
        <mxCell id="I3eww4QS5JIf8gdz_hNe-6" value="-" style="rounded=0;whiteSpace=wrap;html=1;" vertex="1" parent="1">
          <mxGeometry x="220" y="32.5" width="120" height="20" as="geometry" />
        </mxCell>
        <mxCell id="I3eww4QS5JIf8gdz_hNe-7" value="" style="verticalLabelPosition=bottom;verticalAlign=top;html=1;shape=mxgraph.basic.x;fillColor=#f8cecc;strokeColor=#b85450;" vertex="1" parent="1">
          <mxGeometry x="310" y="55" width="20" height="15" as="geometry" />
        </mxCell>
        <mxCell id="I3eww4QS5JIf8gdz_hNe-8" value="31" style="text;html=1;strokeColor=none;fillColor=none;align=center;verticalAlign=middle;whiteSpace=wrap;rounded=0;" vertex="1" parent="1">
          <mxGeometry x="250" y="2.5" width="60" height="30" as="geometry" />
        </mxCell>
        <mxCell id="I3eww4QS5JIf8gdz_hNe-9" value="(" style="rounded=0;whiteSpace=wrap;html=1;" vertex="1" parent="1">
          <mxGeometry x="360" y="62.5" width="120" height="20" as="geometry" />
        </mxCell>
        <mxCell id="I3eww4QS5JIf8gdz_hNe-10" value="-" style="rounded=0;whiteSpace=wrap;html=1;" vertex="1" parent="1">
          <mxGeometry x="360" y="42.5" width="120" height="20" as="geometry" />
        </mxCell>
        <mxCell id="I3eww4QS5JIf8gdz_hNe-11" value="" style="verticalLabelPosition=bottom;verticalAlign=top;html=1;shape=mxgraph.basic.x;fillColor=#f8cecc;strokeColor=#b85450;" vertex="1" parent="1">
          <mxGeometry x="450" y="65" width="20" height="15" as="geometry" />
        </mxCell>
        <mxCell id="I3eww4QS5JIf8gdz_hNe-12" value=")" style="rounded=0;whiteSpace=wrap;html=1;" vertex="1" parent="1">
          <mxGeometry x="360" y="25" width="120" height="20" as="geometry" />
        </mxCell>
        <mxCell id="I3eww4QS5JIf8gdz_hNe-13" value="" style="verticalLabelPosition=bottom;verticalAlign=top;html=1;shape=mxgraph.basic.x;fillColor=#f8cecc;strokeColor=#b85450;" vertex="1" parent="1">
          <mxGeometry x="450" y="47.5" width="20" height="15" as="geometry" />
        </mxCell>
        <mxCell id="I3eww4QS5JIf8gdz_hNe-14" value="" style="verticalLabelPosition=bottom;verticalAlign=top;html=1;shape=mxgraph.basic.x;fillColor=#f8cecc;strokeColor=#b85450;" vertex="1" parent="1">
          <mxGeometry x="450" y="27.5" width="20" height="15" as="geometry" />
        </mxCell>
        <mxCell id="I3eww4QS5JIf8gdz_hNe-15" value="31-" style="text;html=1;strokeColor=none;fillColor=none;align=center;verticalAlign=middle;whiteSpace=wrap;rounded=0;" vertex="1" parent="1">
          <mxGeometry x="390" y="-2.5" width="60" height="30" as="geometry" />
        </mxCell>
        <mxCell id="I3eww4QS5JIf8gdz_hNe-22" value="(" style="rounded=0;whiteSpace=wrap;html=1;" vertex="1" parent="1">
          <mxGeometry x="510" y="80" width="120" height="20" as="geometry" />
        </mxCell>
        <mxCell id="I3eww4QS5JIf8gdz_hNe-23" value="-" style="rounded=0;whiteSpace=wrap;html=1;" vertex="1" parent="1">
          <mxGeometry x="510" y="60" width="120" height="20" as="geometry" />
        </mxCell>
        <mxCell id="I3eww4QS5JIf8gdz_hNe-24" value="" style="verticalLabelPosition=bottom;verticalAlign=top;html=1;shape=mxgraph.basic.x;fillColor=#f8cecc;strokeColor=#b85450;" vertex="1" parent="1">
          <mxGeometry x="600" y="82.5" width="20" height="15" as="geometry" />
        </mxCell>
        <mxCell id="I3eww4QS5JIf8gdz_hNe-25" value=")" style="rounded=0;whiteSpace=wrap;html=1;" vertex="1" parent="1">
          <mxGeometry x="510" y="42.5" width="120" height="20" as="geometry" />
        </mxCell>
        <mxCell id="I3eww4QS5JIf8gdz_hNe-26" value="" style="verticalLabelPosition=bottom;verticalAlign=top;html=1;shape=mxgraph.basic.x;fillColor=#f8cecc;strokeColor=#b85450;" vertex="1" parent="1">
          <mxGeometry x="600" y="65" width="20" height="15" as="geometry" />
        </mxCell>
        <mxCell id="I3eww4QS5JIf8gdz_hNe-27" value="" style="verticalLabelPosition=bottom;verticalAlign=top;html=1;shape=mxgraph.basic.x;fillColor=#f8cecc;strokeColor=#b85450;" vertex="1" parent="1">
          <mxGeometry x="600" y="45" width="20" height="15" as="geometry" />
        </mxCell>
        <mxCell id="I3eww4QS5JIf8gdz_hNe-28" value="*" style="rounded=0;whiteSpace=wrap;html=1;" vertex="1" parent="1">
          <mxGeometry x="510" y="22.5" width="120" height="20" as="geometry" />
        </mxCell>
        <mxCell id="I3eww4QS5JIf8gdz_hNe-29" value="31-6" style="text;html=1;strokeColor=none;fillColor=none;align=center;verticalAlign=middle;whiteSpace=wrap;rounded=0;" vertex="1" parent="1">
          <mxGeometry x="540" y="-5" width="60" height="30" as="geometry" />
        </mxCell>
        <mxCell id="I3eww4QS5JIf8gdz_hNe-30" value="(" style="rounded=0;whiteSpace=wrap;html=1;" vertex="1" parent="1">
          <mxGeometry x="660" y="78.75" width="120" height="20" as="geometry" />
        </mxCell>
        <mxCell id="I3eww4QS5JIf8gdz_hNe-31" value="-" style="rounded=0;whiteSpace=wrap;html=1;" vertex="1" parent="1">
          <mxGeometry x="660" y="58.75" width="120" height="20" as="geometry" />
        </mxCell>
        <mxCell id="I3eww4QS5JIf8gdz_hNe-32" value="" style="verticalLabelPosition=bottom;verticalAlign=top;html=1;shape=mxgraph.basic.x;fillColor=#f8cecc;strokeColor=#b85450;" vertex="1" parent="1">
          <mxGeometry x="750" y="81.25" width="20" height="15" as="geometry" />
        </mxCell>
        <mxCell id="I3eww4QS5JIf8gdz_hNe-33" value=")" style="rounded=0;whiteSpace=wrap;html=1;" vertex="1" parent="1">
          <mxGeometry x="660" y="41.25" width="120" height="20" as="geometry" />
        </mxCell>
        <mxCell id="I3eww4QS5JIf8gdz_hNe-34" value="" style="verticalLabelPosition=bottom;verticalAlign=top;html=1;shape=mxgraph.basic.x;fillColor=#f8cecc;strokeColor=#b85450;" vertex="1" parent="1">
          <mxGeometry x="750" y="63.75" width="20" height="15" as="geometry" />
        </mxCell>
        <mxCell id="I3eww4QS5JIf8gdz_hNe-35" value="" style="verticalLabelPosition=bottom;verticalAlign=top;html=1;shape=mxgraph.basic.x;fillColor=#f8cecc;strokeColor=#b85450;" vertex="1" parent="1">
          <mxGeometry x="750" y="43.75" width="20" height="15" as="geometry" />
        </mxCell>
        <mxCell id="I3eww4QS5JIf8gdz_hNe-36" value="*" style="rounded=0;whiteSpace=wrap;html=1;" vertex="1" parent="1">
          <mxGeometry x="660" y="21.25" width="120" height="20" as="geometry" />
        </mxCell>
        <mxCell id="I3eww4QS5JIf8gdz_hNe-37" value="" style="verticalLabelPosition=bottom;verticalAlign=top;html=1;shape=mxgraph.basic.x;fillColor=#f8cecc;strokeColor=#b85450;" vertex="1" parent="1">
          <mxGeometry x="750" y="23.75" width="20" height="15" as="geometry" />
        </mxCell>
        <mxCell id="I3eww4QS5JIf8gdz_hNe-38" value="31-6*" style="text;html=1;strokeColor=none;fillColor=none;align=center;verticalAlign=middle;whiteSpace=wrap;rounded=0;" vertex="1" parent="1">
          <mxGeometry x="690" y="-5" width="60" height="30" as="geometry" />
        </mxCell>
        <mxCell id="I3eww4QS5JIf8gdz_hNe-39" value="31-6*" style="text;html=1;strokeColor=none;fillColor=none;align=center;verticalAlign=middle;whiteSpace=wrap;rounded=0;" vertex="1" parent="1">
          <mxGeometry x="220" y="120" width="60" height="30" as="geometry" />
        </mxCell>
        <mxCell id="I3eww4QS5JIf8gdz_hNe-40" value="3" style="rounded=0;whiteSpace=wrap;html=1;" vertex="1" parent="1">
          <mxGeometry x="60" y="260" width="120" height="20" as="geometry" />
        </mxCell>
        <mxCell id="I3eww4QS5JIf8gdz_hNe-41" value="1" style="rounded=0;whiteSpace=wrap;html=1;" vertex="1" parent="1">
          <mxGeometry x="60" y="240" width="120" height="20" as="geometry" />
        </mxCell>
        <mxCell id="I3eww4QS5JIf8gdz_hNe-42" value="-" style="rounded=0;whiteSpace=wrap;html=1;" vertex="1" parent="1">
          <mxGeometry x="60" y="220" width="120" height="20" as="geometry" />
        </mxCell>
        <mxCell id="I3eww4QS5JIf8gdz_hNe-43" value="" style="verticalLabelPosition=bottom;verticalAlign=top;html=1;shape=mxgraph.basic.x;fillColor=#f8cecc;strokeColor=#b85450;" vertex="1" parent="1">
          <mxGeometry x="150" y="262.5" width="20" height="15" as="geometry" />
        </mxCell>
        <mxCell id="I3eww4QS5JIf8gdz_hNe-44" value="" style="verticalLabelPosition=bottom;verticalAlign=top;html=1;shape=mxgraph.basic.x;fillColor=#f8cecc;strokeColor=#b85450;" vertex="1" parent="1">
          <mxGeometry x="150" y="242.5" width="20" height="15" as="geometry" />
        </mxCell>
        <mxCell id="I3eww4QS5JIf8gdz_hNe-45" value="" style="verticalLabelPosition=bottom;verticalAlign=top;html=1;shape=mxgraph.basic.x;fillColor=#f8cecc;strokeColor=#b85450;" vertex="1" parent="1">
          <mxGeometry x="150" y="222.5" width="20" height="15" as="geometry" />
        </mxCell>
        <mxCell id="I3eww4QS5JIf8gdz_hNe-46" value="3-1=2" style="text;html=1;strokeColor=none;fillColor=none;align=center;verticalAlign=middle;whiteSpace=wrap;rounded=0;" vertex="1" parent="1">
          <mxGeometry x="100" y="160" width="60" height="30" as="geometry" />
        </mxCell>
        <mxCell id="I3eww4QS5JIf8gdz_hNe-47" value="2" style="rounded=0;whiteSpace=wrap;html=1;" vertex="1" parent="1">
          <mxGeometry x="60" y="200" width="120" height="20" as="geometry" />
        </mxCell>
        <mxCell id="I3eww4QS5JIf8gdz_hNe-48" value="3" style="rounded=0;whiteSpace=wrap;html=1;" vertex="1" parent="1">
          <mxGeometry x="230" y="317.5" width="120" height="20" as="geometry" />
        </mxCell>
        <mxCell id="I3eww4QS5JIf8gdz_hNe-49" value="1" style="rounded=0;whiteSpace=wrap;html=1;" vertex="1" parent="1">
          <mxGeometry x="230" y="297.5" width="120" height="20" as="geometry" />
        </mxCell>
        <mxCell id="I3eww4QS5JIf8gdz_hNe-50" value="-" style="rounded=0;whiteSpace=wrap;html=1;" vertex="1" parent="1">
          <mxGeometry x="230" y="277.5" width="120" height="20" as="geometry" />
        </mxCell>
        <mxCell id="I3eww4QS5JIf8gdz_hNe-51" value="" style="verticalLabelPosition=bottom;verticalAlign=top;html=1;shape=mxgraph.basic.x;fillColor=#f8cecc;strokeColor=#b85450;" vertex="1" parent="1">
          <mxGeometry x="320" y="320" width="20" height="15" as="geometry" />
        </mxCell>
        <mxCell id="I3eww4QS5JIf8gdz_hNe-52" value="" style="verticalLabelPosition=bottom;verticalAlign=top;html=1;shape=mxgraph.basic.x;fillColor=#f8cecc;strokeColor=#b85450;" vertex="1" parent="1">
          <mxGeometry x="320" y="300" width="20" height="15" as="geometry" />
        </mxCell>
        <mxCell id="I3eww4QS5JIf8gdz_hNe-53" value="" style="verticalLabelPosition=bottom;verticalAlign=top;html=1;shape=mxgraph.basic.x;fillColor=#f8cecc;strokeColor=#b85450;" vertex="1" parent="1">
          <mxGeometry x="320" y="280" width="20" height="15" as="geometry" />
        </mxCell>
        <mxCell id="I3eww4QS5JIf8gdz_hNe-54" value="2" style="rounded=0;whiteSpace=wrap;html=1;" vertex="1" parent="1">
          <mxGeometry x="230" y="257.5" width="120" height="20" as="geometry" />
        </mxCell>
        <mxCell id="I3eww4QS5JIf8gdz_hNe-55" value="6" style="rounded=0;whiteSpace=wrap;html=1;" vertex="1" parent="1">
          <mxGeometry x="230" y="237.5" width="120" height="20" as="geometry" />
        </mxCell>
        <mxCell id="I3eww4QS5JIf8gdz_hNe-56" value="*" style="rounded=0;whiteSpace=wrap;html=1;" vertex="1" parent="1">
          <mxGeometry x="230" y="217.5" width="120" height="20" as="geometry" />
        </mxCell>
        <mxCell id="I3eww4QS5JIf8gdz_hNe-57" value="" style="verticalLabelPosition=bottom;verticalAlign=top;html=1;shape=mxgraph.basic.x;fillColor=#f8cecc;strokeColor=#b85450;" vertex="1" parent="1">
          <mxGeometry x="320" y="260" width="20" height="15" as="geometry" />
        </mxCell>
        <mxCell id="I3eww4QS5JIf8gdz_hNe-58" value="" style="verticalLabelPosition=bottom;verticalAlign=top;html=1;shape=mxgraph.basic.x;fillColor=#f8cecc;strokeColor=#b85450;" vertex="1" parent="1">
          <mxGeometry x="320" y="240" width="20" height="15" as="geometry" />
        </mxCell>
        <mxCell id="I3eww4QS5JIf8gdz_hNe-59" value="" style="verticalLabelPosition=bottom;verticalAlign=top;html=1;shape=mxgraph.basic.x;fillColor=#f8cecc;strokeColor=#b85450;" vertex="1" parent="1">
          <mxGeometry x="320" y="220" width="20" height="15" as="geometry" />
        </mxCell>
        <mxCell id="I3eww4QS5JIf8gdz_hNe-61" value="2*6=12" style="text;html=1;strokeColor=none;fillColor=none;align=center;verticalAlign=middle;whiteSpace=wrap;rounded=0;" vertex="1" parent="1">
          <mxGeometry x="260" y="160" width="60" height="30" as="geometry" />
        </mxCell>
        <mxCell id="I3eww4QS5JIf8gdz_hNe-64" value="12" style="rounded=0;whiteSpace=wrap;html=1;" vertex="1" parent="1">
          <mxGeometry x="230" y="200" width="120" height="20" as="geometry" />
        </mxCell>
        <mxCell id="I3eww4QS5JIf8gdz_hNe-66" value="(" style="rounded=0;whiteSpace=wrap;html=1;" vertex="1" parent="1">
          <mxGeometry x="40" y="640" width="120" height="20" as="geometry" />
        </mxCell>
        <mxCell id="I3eww4QS5JIf8gdz_hNe-67" value="(" style="rounded=0;whiteSpace=wrap;html=1;" vertex="1" parent="1">
          <mxGeometry x="180" y="660" width="120" height="20" as="geometry" />
        </mxCell>
        <mxCell id="I3eww4QS5JIf8gdz_hNe-70" value="4" style="text;html=1;strokeColor=none;fillColor=none;align=center;verticalAlign=middle;whiteSpace=wrap;rounded=0;" vertex="1" parent="1">
          <mxGeometry x="70" y="600" width="60" height="30" as="geometry" />
        </mxCell>
        <mxCell id="I3eww4QS5JIf8gdz_hNe-72" value="+" style="rounded=0;whiteSpace=wrap;html=1;" vertex="1" parent="1">
          <mxGeometry x="180" y="640" width="120" height="20" as="geometry" />
        </mxCell>
        <mxCell id="I3eww4QS5JIf8gdz_hNe-73" value="42" style="text;html=1;strokeColor=none;fillColor=none;align=center;verticalAlign=middle;whiteSpace=wrap;rounded=0;" vertex="1" parent="1">
          <mxGeometry x="210" y="600" width="60" height="30" as="geometry" />
        </mxCell>
        <mxCell id="I3eww4QS5JIf8gdz_hNe-74" value="" style="verticalLabelPosition=bottom;verticalAlign=top;html=1;shape=mxgraph.basic.x;fillColor=#f8cecc;strokeColor=#b85450;" vertex="1" parent="1">
          <mxGeometry x="270" y="662.5" width="20" height="15" as="geometry" />
        </mxCell>
        <mxCell id="I3eww4QS5JIf8gdz_hNe-75" value="(" style="rounded=0;whiteSpace=wrap;html=1;" vertex="1" parent="1">
          <mxGeometry x="330" y="680" width="120" height="20" as="geometry" />
        </mxCell>
        <mxCell id="I3eww4QS5JIf8gdz_hNe-76" value="+" style="rounded=0;whiteSpace=wrap;html=1;" vertex="1" parent="1">
          <mxGeometry x="330" y="660" width="120" height="20" as="geometry" />
        </mxCell>
        <mxCell id="I3eww4QS5JIf8gdz_hNe-77" value="" style="verticalLabelPosition=bottom;verticalAlign=top;html=1;shape=mxgraph.basic.x;fillColor=#f8cecc;strokeColor=#b85450;" vertex="1" parent="1">
          <mxGeometry x="420" y="682.5" width="20" height="15" as="geometry" />
        </mxCell>
        <mxCell id="I3eww4QS5JIf8gdz_hNe-78" value=")" style="rounded=0;whiteSpace=wrap;html=1;" vertex="1" parent="1">
          <mxGeometry x="330" y="640" width="120" height="20" as="geometry" />
        </mxCell>
        <mxCell id="I3eww4QS5JIf8gdz_hNe-79" value="" style="verticalLabelPosition=bottom;verticalAlign=top;html=1;shape=mxgraph.basic.x;fillColor=#f8cecc;strokeColor=#b85450;" vertex="1" parent="1">
          <mxGeometry x="420" y="662.5" width="20" height="15" as="geometry" />
        </mxCell>
        <mxCell id="I3eww4QS5JIf8gdz_hNe-80" value="" style="verticalLabelPosition=bottom;verticalAlign=top;html=1;shape=mxgraph.basic.x;fillColor=#f8cecc;strokeColor=#b85450;" vertex="1" parent="1">
          <mxGeometry x="420" y="642.5" width="20" height="15" as="geometry" />
        </mxCell>
        <mxCell id="I3eww4QS5JIf8gdz_hNe-83" value="42+" style="text;html=1;strokeColor=none;fillColor=none;align=center;verticalAlign=middle;whiteSpace=wrap;rounded=0;" vertex="1" parent="1">
          <mxGeometry x="360" y="600" width="60" height="30" as="geometry" />
        </mxCell>
        <mxCell id="I3eww4QS5JIf8gdz_hNe-84" value="(" style="rounded=0;whiteSpace=wrap;html=1;" vertex="1" parent="1">
          <mxGeometry x="480" y="717.5" width="120" height="20" as="geometry" />
        </mxCell>
        <mxCell id="I3eww4QS5JIf8gdz_hNe-85" value="+" style="rounded=0;whiteSpace=wrap;html=1;" vertex="1" parent="1">
          <mxGeometry x="480" y="697.5" width="120" height="20" as="geometry" />
        </mxCell>
        <mxCell id="I3eww4QS5JIf8gdz_hNe-86" value="" style="verticalLabelPosition=bottom;verticalAlign=top;html=1;shape=mxgraph.basic.x;fillColor=#f8cecc;strokeColor=#b85450;" vertex="1" parent="1">
          <mxGeometry x="570" y="720" width="20" height="15" as="geometry" />
        </mxCell>
        <mxCell id="I3eww4QS5JIf8gdz_hNe-87" value=")" style="rounded=0;whiteSpace=wrap;html=1;" vertex="1" parent="1">
          <mxGeometry x="480" y="677.5" width="120" height="20" as="geometry" />
        </mxCell>
        <mxCell id="I3eww4QS5JIf8gdz_hNe-88" value="" style="verticalLabelPosition=bottom;verticalAlign=top;html=1;shape=mxgraph.basic.x;fillColor=#f8cecc;strokeColor=#b85450;" vertex="1" parent="1">
          <mxGeometry x="570" y="700" width="20" height="15" as="geometry" />
        </mxCell>
        <mxCell id="I3eww4QS5JIf8gdz_hNe-89" value="" style="verticalLabelPosition=bottom;verticalAlign=top;html=1;shape=mxgraph.basic.x;fillColor=#f8cecc;strokeColor=#b85450;" vertex="1" parent="1">
          <mxGeometry x="570" y="680" width="20" height="15" as="geometry" />
        </mxCell>
        <mxCell id="I3eww4QS5JIf8gdz_hNe-90" value="*" style="rounded=0;whiteSpace=wrap;html=1;" vertex="1" parent="1">
          <mxGeometry x="480" y="660" width="120" height="20" as="geometry" />
        </mxCell>
        <mxCell id="I3eww4QS5JIf8gdz_hNe-91" value="(" style="rounded=0;whiteSpace=wrap;html=1;" vertex="1" parent="1">
          <mxGeometry x="480" y="640" width="120" height="20" as="geometry" />
        </mxCell>
        <mxCell id="I3eww4QS5JIf8gdz_hNe-92" value="42+2" style="text;html=1;strokeColor=none;fillColor=none;align=center;verticalAlign=middle;whiteSpace=wrap;rounded=0;" vertex="1" parent="1">
          <mxGeometry x="510" y="600" width="60" height="30" as="geometry" />
        </mxCell>
        <mxCell id="I3eww4QS5JIf8gdz_hNe-93" value="(" style="rounded=0;whiteSpace=wrap;html=1;" vertex="1" parent="1">
          <mxGeometry x="620" y="737.5" width="120" height="20" as="geometry" />
        </mxCell>
        <mxCell id="I3eww4QS5JIf8gdz_hNe-94" value="+" style="rounded=0;whiteSpace=wrap;html=1;" vertex="1" parent="1">
          <mxGeometry x="620" y="717.5" width="120" height="20" as="geometry" />
        </mxCell>
        <mxCell id="I3eww4QS5JIf8gdz_hNe-95" value="" style="verticalLabelPosition=bottom;verticalAlign=top;html=1;shape=mxgraph.basic.x;fillColor=#f8cecc;strokeColor=#b85450;" vertex="1" parent="1">
          <mxGeometry x="710" y="740" width="20" height="15" as="geometry" />
        </mxCell>
        <mxCell id="I3eww4QS5JIf8gdz_hNe-96" value=")" style="rounded=0;whiteSpace=wrap;html=1;" vertex="1" parent="1">
          <mxGeometry x="620" y="697.5" width="120" height="20" as="geometry" />
        </mxCell>
        <mxCell id="I3eww4QS5JIf8gdz_hNe-97" value="" style="verticalLabelPosition=bottom;verticalAlign=top;html=1;shape=mxgraph.basic.x;fillColor=#f8cecc;strokeColor=#b85450;" vertex="1" parent="1">
          <mxGeometry x="710" y="720" width="20" height="15" as="geometry" />
        </mxCell>
        <mxCell id="I3eww4QS5JIf8gdz_hNe-98" value="" style="verticalLabelPosition=bottom;verticalAlign=top;html=1;shape=mxgraph.basic.x;fillColor=#f8cecc;strokeColor=#b85450;" vertex="1" parent="1">
          <mxGeometry x="710" y="700" width="20" height="15" as="geometry" />
        </mxCell>
        <mxCell id="I3eww4QS5JIf8gdz_hNe-99" value="*" style="rounded=0;whiteSpace=wrap;html=1;" vertex="1" parent="1">
          <mxGeometry x="620" y="680" width="120" height="20" as="geometry" />
        </mxCell>
        <mxCell id="I3eww4QS5JIf8gdz_hNe-100" value="(" style="rounded=0;whiteSpace=wrap;html=1;" vertex="1" parent="1">
          <mxGeometry x="620" y="660" width="120" height="20" as="geometry" />
        </mxCell>
        <mxCell id="I3eww4QS5JIf8gdz_hNe-101" value="+" style="rounded=0;whiteSpace=wrap;html=1;" vertex="1" parent="1">
          <mxGeometry x="620" y="640" width="120" height="20" as="geometry" />
        </mxCell>
        <mxCell id="I3eww4QS5JIf8gdz_hNe-102" value="" style="verticalLabelPosition=bottom;verticalAlign=top;html=1;shape=mxgraph.basic.x;fillColor=#f8cecc;strokeColor=#b85450;" vertex="1" parent="1">
          <mxGeometry x="710" y="662.5" width="20" height="15" as="geometry" />
        </mxCell>
        <mxCell id="I3eww4QS5JIf8gdz_hNe-103" value="42+22" style="text;html=1;strokeColor=none;fillColor=none;align=center;verticalAlign=middle;whiteSpace=wrap;rounded=0;" vertex="1" parent="1">
          <mxGeometry x="650" y="600" width="60" height="30" as="geometry" />
        </mxCell>
        <mxCell id="I3eww4QS5JIf8gdz_hNe-104" value="(" style="rounded=0;whiteSpace=wrap;html=1;" vertex="1" parent="1">
          <mxGeometry x="750" y="755" width="120" height="20" as="geometry" />
        </mxCell>
        <mxCell id="I3eww4QS5JIf8gdz_hNe-105" value="+" style="rounded=0;whiteSpace=wrap;html=1;" vertex="1" parent="1">
          <mxGeometry x="750" y="735" width="120" height="20" as="geometry" />
        </mxCell>
        <mxCell id="I3eww4QS5JIf8gdz_hNe-106" value="" style="verticalLabelPosition=bottom;verticalAlign=top;html=1;shape=mxgraph.basic.x;fillColor=#f8cecc;strokeColor=#b85450;" vertex="1" parent="1">
          <mxGeometry x="840" y="757.5" width="20" height="15" as="geometry" />
        </mxCell>
        <mxCell id="I3eww4QS5JIf8gdz_hNe-107" value=")" style="rounded=0;whiteSpace=wrap;html=1;" vertex="1" parent="1">
          <mxGeometry x="750" y="715" width="120" height="20" as="geometry" />
        </mxCell>
        <mxCell id="I3eww4QS5JIf8gdz_hNe-108" value="" style="verticalLabelPosition=bottom;verticalAlign=top;html=1;shape=mxgraph.basic.x;fillColor=#f8cecc;strokeColor=#b85450;" vertex="1" parent="1">
          <mxGeometry x="840" y="737.5" width="20" height="15" as="geometry" />
        </mxCell>
        <mxCell id="I3eww4QS5JIf8gdz_hNe-109" value="" style="verticalLabelPosition=bottom;verticalAlign=top;html=1;shape=mxgraph.basic.x;fillColor=#f8cecc;strokeColor=#b85450;" vertex="1" parent="1">
          <mxGeometry x="840" y="717.5" width="20" height="15" as="geometry" />
        </mxCell>
        <mxCell id="I3eww4QS5JIf8gdz_hNe-110" value="*" style="rounded=0;whiteSpace=wrap;html=1;" vertex="1" parent="1">
          <mxGeometry x="750" y="697.5" width="120" height="20" as="geometry" />
        </mxCell>
        <mxCell id="I3eww4QS5JIf8gdz_hNe-111" value="(" style="rounded=0;whiteSpace=wrap;html=1;" vertex="1" parent="1">
          <mxGeometry x="750" y="677.5" width="120" height="20" as="geometry" />
        </mxCell>
        <mxCell id="I3eww4QS5JIf8gdz_hNe-112" value="+" style="rounded=0;whiteSpace=wrap;html=1;" vertex="1" parent="1">
          <mxGeometry x="750" y="657.5" width="120" height="20" as="geometry" />
        </mxCell>
        <mxCell id="I3eww4QS5JIf8gdz_hNe-113" value="" style="verticalLabelPosition=bottom;verticalAlign=top;html=1;shape=mxgraph.basic.x;fillColor=#f8cecc;strokeColor=#b85450;" vertex="1" parent="1">
          <mxGeometry x="840" y="680" width="20" height="15" as="geometry" />
        </mxCell>
        <mxCell id="I3eww4QS5JIf8gdz_hNe-124" value=")" style="rounded=0;whiteSpace=wrap;html=1;" vertex="1" parent="1">
          <mxGeometry x="750" y="637.5" width="120" height="20" as="geometry" />
        </mxCell>
        <mxCell id="I3eww4QS5JIf8gdz_hNe-127" value="" style="verticalLabelPosition=bottom;verticalAlign=top;html=1;shape=mxgraph.basic.x;fillColor=#f8cecc;strokeColor=#b85450;" vertex="1" parent="1">
          <mxGeometry x="840" y="660" width="20" height="15" as="geometry" />
        </mxCell>
        <mxCell id="I3eww4QS5JIf8gdz_hNe-128" value="" style="verticalLabelPosition=bottom;verticalAlign=top;html=1;shape=mxgraph.basic.x;fillColor=#f8cecc;strokeColor=#b85450;" vertex="1" parent="1">
          <mxGeometry x="840" y="640" width="20" height="15" as="geometry" />
        </mxCell>
        <mxCell id="I3eww4QS5JIf8gdz_hNe-129" value="42+22+2" style="text;html=1;strokeColor=none;fillColor=none;align=center;verticalAlign=middle;whiteSpace=wrap;rounded=0;" vertex="1" parent="1">
          <mxGeometry x="780" y="600" width="60" height="30" as="geometry" />
        </mxCell>
        <mxCell id="I3eww4QS5JIf8gdz_hNe-130" value="" style="shape=flexArrow;endArrow=classic;html=1;rounded=0;fillColor=#e1d5e7;strokeColor=#9673a6;" edge="1" parent="1">
          <mxGeometry width="50" height="50" relative="1" as="geometry">
            <mxPoint x="830" y="775" as="sourcePoint" />
            <mxPoint x="830" y="805" as="targetPoint" />
          </mxGeometry>
        </mxCell>
        <mxCell id="I3eww4QS5JIf8gdz_hNe-131" value="(" style="rounded=0;whiteSpace=wrap;html=1;" vertex="1" parent="1">
          <mxGeometry x="760" y="977.5" width="120" height="20" as="geometry" />
        </mxCell>
        <mxCell id="I3eww4QS5JIf8gdz_hNe-132" value="+" style="rounded=0;whiteSpace=wrap;html=1;" vertex="1" parent="1">
          <mxGeometry x="760" y="957.5" width="120" height="20" as="geometry" />
        </mxCell>
        <mxCell id="I3eww4QS5JIf8gdz_hNe-133" value="" style="verticalLabelPosition=bottom;verticalAlign=top;html=1;shape=mxgraph.basic.x;fillColor=#f8cecc;strokeColor=#b85450;" vertex="1" parent="1">
          <mxGeometry x="850" y="980" width="20" height="15" as="geometry" />
        </mxCell>
        <mxCell id="I3eww4QS5JIf8gdz_hNe-134" value=")" style="rounded=0;whiteSpace=wrap;html=1;" vertex="1" parent="1">
          <mxGeometry x="760" y="937.5" width="120" height="20" as="geometry" />
        </mxCell>
        <mxCell id="I3eww4QS5JIf8gdz_hNe-135" value="" style="verticalLabelPosition=bottom;verticalAlign=top;html=1;shape=mxgraph.basic.x;fillColor=#f8cecc;strokeColor=#b85450;" vertex="1" parent="1">
          <mxGeometry x="850" y="960" width="20" height="15" as="geometry" />
        </mxCell>
        <mxCell id="I3eww4QS5JIf8gdz_hNe-136" value="" style="verticalLabelPosition=bottom;verticalAlign=top;html=1;shape=mxgraph.basic.x;fillColor=#f8cecc;strokeColor=#b85450;" vertex="1" parent="1">
          <mxGeometry x="850" y="940" width="20" height="15" as="geometry" />
        </mxCell>
        <mxCell id="I3eww4QS5JIf8gdz_hNe-137" value="*" style="rounded=0;whiteSpace=wrap;html=1;" vertex="1" parent="1">
          <mxGeometry x="760" y="920" width="120" height="20" as="geometry" />
        </mxCell>
        <mxCell id="I3eww4QS5JIf8gdz_hNe-138" value="(" style="rounded=0;whiteSpace=wrap;html=1;" vertex="1" parent="1">
          <mxGeometry x="760" y="900" width="120" height="20" as="geometry" />
        </mxCell>
        <mxCell id="I3eww4QS5JIf8gdz_hNe-139" value="+" style="rounded=0;whiteSpace=wrap;html=1;" vertex="1" parent="1">
          <mxGeometry x="760" y="880" width="120" height="20" as="geometry" />
        </mxCell>
        <mxCell id="I3eww4QS5JIf8gdz_hNe-140" value="" style="verticalLabelPosition=bottom;verticalAlign=top;html=1;shape=mxgraph.basic.x;fillColor=#f8cecc;strokeColor=#b85450;" vertex="1" parent="1">
          <mxGeometry x="850" y="902.5" width="20" height="15" as="geometry" />
        </mxCell>
        <mxCell id="I3eww4QS5JIf8gdz_hNe-141" value=")" style="rounded=0;whiteSpace=wrap;html=1;" vertex="1" parent="1">
          <mxGeometry x="760" y="860" width="120" height="20" as="geometry" />
        </mxCell>
        <mxCell id="I3eww4QS5JIf8gdz_hNe-142" value="" style="verticalLabelPosition=bottom;verticalAlign=top;html=1;shape=mxgraph.basic.x;fillColor=#f8cecc;strokeColor=#b85450;" vertex="1" parent="1">
          <mxGeometry x="850" y="882.5" width="20" height="15" as="geometry" />
        </mxCell>
        <mxCell id="I3eww4QS5JIf8gdz_hNe-143" value="" style="verticalLabelPosition=bottom;verticalAlign=top;html=1;shape=mxgraph.basic.x;fillColor=#f8cecc;strokeColor=#b85450;" vertex="1" parent="1">
          <mxGeometry x="850" y="862.5" width="20" height="15" as="geometry" />
        </mxCell>
        <mxCell id="I3eww4QS5JIf8gdz_hNe-144" value="^" style="rounded=0;whiteSpace=wrap;html=1;" vertex="1" parent="1">
          <mxGeometry x="760" y="840" width="120" height="20" as="geometry" />
        </mxCell>
        <mxCell id="I3eww4QS5JIf8gdz_hNe-145" value="42+22+2" style="text;html=1;strokeColor=none;fillColor=none;align=center;verticalAlign=middle;whiteSpace=wrap;rounded=0;" vertex="1" parent="1">
          <mxGeometry x="790" y="810" width="60" height="30" as="geometry" />
        </mxCell>
        <mxCell id="I3eww4QS5JIf8gdz_hNe-146" value="(" style="rounded=0;whiteSpace=wrap;html=1;" vertex="1" parent="1">
          <mxGeometry x="590" y="977.5" width="120" height="20" as="geometry" />
        </mxCell>
        <mxCell id="I3eww4QS5JIf8gdz_hNe-147" value="+" style="rounded=0;whiteSpace=wrap;html=1;" vertex="1" parent="1">
          <mxGeometry x="590" y="957.5" width="120" height="20" as="geometry" />
        </mxCell>
        <mxCell id="I3eww4QS5JIf8gdz_hNe-148" value="" style="verticalLabelPosition=bottom;verticalAlign=top;html=1;shape=mxgraph.basic.x;fillColor=#f8cecc;strokeColor=#b85450;" vertex="1" parent="1">
          <mxGeometry x="680" y="980" width="20" height="15" as="geometry" />
        </mxCell>
        <mxCell id="I3eww4QS5JIf8gdz_hNe-149" value=")" style="rounded=0;whiteSpace=wrap;html=1;" vertex="1" parent="1">
          <mxGeometry x="590" y="937.5" width="120" height="20" as="geometry" />
        </mxCell>
        <mxCell id="I3eww4QS5JIf8gdz_hNe-150" value="" style="verticalLabelPosition=bottom;verticalAlign=top;html=1;shape=mxgraph.basic.x;fillColor=#f8cecc;strokeColor=#b85450;" vertex="1" parent="1">
          <mxGeometry x="680" y="960" width="20" height="15" as="geometry" />
        </mxCell>
        <mxCell id="I3eww4QS5JIf8gdz_hNe-151" value="" style="verticalLabelPosition=bottom;verticalAlign=top;html=1;shape=mxgraph.basic.x;fillColor=#f8cecc;strokeColor=#b85450;" vertex="1" parent="1">
          <mxGeometry x="680" y="940" width="20" height="15" as="geometry" />
        </mxCell>
        <mxCell id="I3eww4QS5JIf8gdz_hNe-152" value="*" style="rounded=0;whiteSpace=wrap;html=1;" vertex="1" parent="1">
          <mxGeometry x="590" y="920" width="120" height="20" as="geometry" />
        </mxCell>
        <mxCell id="I3eww4QS5JIf8gdz_hNe-153" value="(" style="rounded=0;whiteSpace=wrap;html=1;" vertex="1" parent="1">
          <mxGeometry x="590" y="900" width="120" height="20" as="geometry" />
        </mxCell>
        <mxCell id="I3eww4QS5JIf8gdz_hNe-154" value="+" style="rounded=0;whiteSpace=wrap;html=1;" vertex="1" parent="1">
          <mxGeometry x="590" y="880" width="120" height="20" as="geometry" />
        </mxCell>
        <mxCell id="I3eww4QS5JIf8gdz_hNe-155" value="" style="verticalLabelPosition=bottom;verticalAlign=top;html=1;shape=mxgraph.basic.x;fillColor=#f8cecc;strokeColor=#b85450;" vertex="1" parent="1">
          <mxGeometry x="680" y="902.5" width="20" height="15" as="geometry" />
        </mxCell>
        <mxCell id="I3eww4QS5JIf8gdz_hNe-156" value=")" style="rounded=0;whiteSpace=wrap;html=1;" vertex="1" parent="1">
          <mxGeometry x="590" y="860" width="120" height="20" as="geometry" />
        </mxCell>
        <mxCell id="I3eww4QS5JIf8gdz_hNe-157" value="" style="verticalLabelPosition=bottom;verticalAlign=top;html=1;shape=mxgraph.basic.x;fillColor=#f8cecc;strokeColor=#b85450;" vertex="1" parent="1">
          <mxGeometry x="680" y="882.5" width="20" height="15" as="geometry" />
        </mxCell>
        <mxCell id="I3eww4QS5JIf8gdz_hNe-158" value="" style="verticalLabelPosition=bottom;verticalAlign=top;html=1;shape=mxgraph.basic.x;fillColor=#f8cecc;strokeColor=#b85450;" vertex="1" parent="1">
          <mxGeometry x="680" y="862.5" width="20" height="15" as="geometry" />
        </mxCell>
        <mxCell id="I3eww4QS5JIf8gdz_hNe-159" value="^" style="rounded=0;whiteSpace=wrap;html=1;" vertex="1" parent="1">
          <mxGeometry x="590" y="840" width="120" height="20" as="geometry" />
        </mxCell>
        <mxCell id="I3eww4QS5JIf8gdz_hNe-160" value="" style="verticalLabelPosition=bottom;verticalAlign=top;html=1;shape=mxgraph.basic.x;fillColor=#f8cecc;strokeColor=#b85450;" vertex="1" parent="1">
          <mxGeometry x="680" y="922.5" width="20" height="15" as="geometry" />
        </mxCell>
        <mxCell id="I3eww4QS5JIf8gdz_hNe-162" value="" style="verticalLabelPosition=bottom;verticalAlign=top;html=1;shape=mxgraph.basic.x;fillColor=#f8cecc;strokeColor=#b85450;" vertex="1" parent="1">
          <mxGeometry x="680" y="842.5" width="20" height="15" as="geometry" />
        </mxCell>
        <mxCell id="I3eww4QS5JIf8gdz_hNe-163" value="42+22+2^*" style="text;html=1;strokeColor=none;fillColor=none;align=center;verticalAlign=middle;whiteSpace=wrap;rounded=0;" vertex="1" parent="1">
          <mxGeometry x="630" y="810" width="60" height="30" as="geometry" />
        </mxCell>
        <mxCell id="I3eww4QS5JIf8gdz_hNe-164" value="4" style="rounded=0;whiteSpace=wrap;html=1;" vertex="1" parent="1">
          <mxGeometry x="60" y="1320" width="120" height="20" as="geometry" />
        </mxCell>
        <mxCell id="I3eww4QS5JIf8gdz_hNe-165" value="2" style="rounded=0;whiteSpace=wrap;html=1;" vertex="1" parent="1">
          <mxGeometry x="60" y="1300" width="120" height="20" as="geometry" />
        </mxCell>
        <mxCell id="I3eww4QS5JIf8gdz_hNe-166" value="+" style="rounded=0;whiteSpace=wrap;html=1;" vertex="1" parent="1">
          <mxGeometry x="60" y="1280" width="120" height="20" as="geometry" />
        </mxCell>
        <mxCell id="I3eww4QS5JIf8gdz_hNe-167" value="6" style="rounded=0;whiteSpace=wrap;html=1;" vertex="1" parent="1">
          <mxGeometry x="60" y="1260" width="120" height="20" as="geometry" />
        </mxCell>
        <mxCell id="I3eww4QS5JIf8gdz_hNe-168" value="" style="verticalLabelPosition=bottom;verticalAlign=top;html=1;shape=mxgraph.basic.x;fillColor=#f8cecc;strokeColor=#b85450;" vertex="1" parent="1">
          <mxGeometry x="150" y="1322.5" width="20" height="15" as="geometry" />
        </mxCell>
        <mxCell id="I3eww4QS5JIf8gdz_hNe-169" value="" style="verticalLabelPosition=bottom;verticalAlign=top;html=1;shape=mxgraph.basic.x;fillColor=#f8cecc;strokeColor=#b85450;" vertex="1" parent="1">
          <mxGeometry x="150" y="1302.5" width="20" height="15" as="geometry" />
        </mxCell>
        <mxCell id="I3eww4QS5JIf8gdz_hNe-170" value="" style="verticalLabelPosition=bottom;verticalAlign=top;html=1;shape=mxgraph.basic.x;fillColor=#f8cecc;strokeColor=#b85450;" vertex="1" parent="1">
          <mxGeometry x="150" y="1282.5" width="20" height="15" as="geometry" />
        </mxCell>
        <mxCell id="I3eww4QS5JIf8gdz_hNe-172" value="4+2=6" style="text;html=1;strokeColor=none;fillColor=none;align=center;verticalAlign=middle;whiteSpace=wrap;rounded=0;" vertex="1" parent="1">
          <mxGeometry x="90" y="1220" width="60" height="30" as="geometry" />
        </mxCell>
        <mxCell id="I3eww4QS5JIf8gdz_hNe-173" value="4" style="rounded=0;whiteSpace=wrap;html=1;" vertex="1" parent="1">
          <mxGeometry x="200" y="1397.5" width="120" height="20" as="geometry" />
        </mxCell>
        <mxCell id="I3eww4QS5JIf8gdz_hNe-174" value="2" style="rounded=0;whiteSpace=wrap;html=1;" vertex="1" parent="1">
          <mxGeometry x="200" y="1377.5" width="120" height="20" as="geometry" />
        </mxCell>
        <mxCell id="I3eww4QS5JIf8gdz_hNe-175" value="+" style="rounded=0;whiteSpace=wrap;html=1;" vertex="1" parent="1">
          <mxGeometry x="200" y="1357.5" width="120" height="20" as="geometry" />
        </mxCell>
        <mxCell id="I3eww4QS5JIf8gdz_hNe-176" value="6" style="rounded=0;whiteSpace=wrap;html=1;" vertex="1" parent="1">
          <mxGeometry x="200" y="1337.5" width="120" height="20" as="geometry" />
        </mxCell>
        <mxCell id="I3eww4QS5JIf8gdz_hNe-177" value="" style="verticalLabelPosition=bottom;verticalAlign=top;html=1;shape=mxgraph.basic.x;fillColor=#f8cecc;strokeColor=#b85450;" vertex="1" parent="1">
          <mxGeometry x="290" y="1400" width="20" height="15" as="geometry" />
        </mxCell>
        <mxCell id="I3eww4QS5JIf8gdz_hNe-178" value="" style="verticalLabelPosition=bottom;verticalAlign=top;html=1;shape=mxgraph.basic.x;fillColor=#f8cecc;strokeColor=#b85450;" vertex="1" parent="1">
          <mxGeometry x="290" y="1380" width="20" height="15" as="geometry" />
        </mxCell>
        <mxCell id="I3eww4QS5JIf8gdz_hNe-179" value="" style="verticalLabelPosition=bottom;verticalAlign=top;html=1;shape=mxgraph.basic.x;fillColor=#f8cecc;strokeColor=#b85450;" vertex="1" parent="1">
          <mxGeometry x="290" y="1360" width="20" height="15" as="geometry" />
        </mxCell>
        <mxCell id="I3eww4QS5JIf8gdz_hNe-180" value="2" style="rounded=0;whiteSpace=wrap;html=1;" vertex="1" parent="1">
          <mxGeometry x="200" y="1317.5" width="120" height="20" as="geometry" />
        </mxCell>
        <mxCell id="I3eww4QS5JIf8gdz_hNe-181" value="2" style="rounded=0;whiteSpace=wrap;html=1;" vertex="1" parent="1">
          <mxGeometry x="200" y="1297.5" width="120" height="20" as="geometry" />
        </mxCell>
        <mxCell id="I3eww4QS5JIf8gdz_hNe-182" value="+" style="rounded=0;whiteSpace=wrap;html=1;" vertex="1" parent="1">
          <mxGeometry x="200" y="1277.5" width="120" height="20" as="geometry" />
        </mxCell>
        <mxCell id="I3eww4QS5JIf8gdz_hNe-183" value="" style="verticalLabelPosition=bottom;verticalAlign=top;html=1;shape=mxgraph.basic.x;fillColor=#f8cecc;strokeColor=#b85450;" vertex="1" parent="1">
          <mxGeometry x="290" y="1320" width="20" height="15" as="geometry" />
        </mxCell>
        <mxCell id="I3eww4QS5JIf8gdz_hNe-184" value="" style="verticalLabelPosition=bottom;verticalAlign=top;html=1;shape=mxgraph.basic.x;fillColor=#f8cecc;strokeColor=#b85450;" vertex="1" parent="1">
          <mxGeometry x="290" y="1300" width="20" height="15" as="geometry" />
        </mxCell>
        <mxCell id="I3eww4QS5JIf8gdz_hNe-185" value="" style="verticalLabelPosition=bottom;verticalAlign=top;html=1;shape=mxgraph.basic.x;fillColor=#f8cecc;strokeColor=#b85450;" vertex="1" parent="1">
          <mxGeometry x="290" y="1280" width="20" height="15" as="geometry" />
        </mxCell>
        <mxCell id="I3eww4QS5JIf8gdz_hNe-186" value="2+2=4" style="text;html=1;strokeColor=none;fillColor=none;align=center;verticalAlign=middle;whiteSpace=wrap;rounded=0;" vertex="1" parent="1">
          <mxGeometry x="230" y="1220" width="60" height="30" as="geometry" />
        </mxCell>
        <mxCell id="I3eww4QS5JIf8gdz_hNe-187" value="4" style="rounded=0;whiteSpace=wrap;html=1;" vertex="1" parent="1">
          <mxGeometry x="200" y="1260" width="120" height="20" as="geometry" />
        </mxCell>
        <mxCell id="I3eww4QS5JIf8gdz_hNe-188" value="4" style="rounded=0;whiteSpace=wrap;html=1;" vertex="1" parent="1">
          <mxGeometry x="340" y="1452.5" width="120" height="20" as="geometry" />
        </mxCell>
        <mxCell id="I3eww4QS5JIf8gdz_hNe-189" value="2" style="rounded=0;whiteSpace=wrap;html=1;" vertex="1" parent="1">
          <mxGeometry x="340" y="1432.5" width="120" height="20" as="geometry" />
        </mxCell>
        <mxCell id="I3eww4QS5JIf8gdz_hNe-190" value="+" style="rounded=0;whiteSpace=wrap;html=1;" vertex="1" parent="1">
          <mxGeometry x="340" y="1412.5" width="120" height="20" as="geometry" />
        </mxCell>
        <mxCell id="I3eww4QS5JIf8gdz_hNe-191" value="6" style="rounded=0;whiteSpace=wrap;html=1;" vertex="1" parent="1">
          <mxGeometry x="340" y="1392.5" width="120" height="20" as="geometry" />
        </mxCell>
        <mxCell id="I3eww4QS5JIf8gdz_hNe-192" value="" style="verticalLabelPosition=bottom;verticalAlign=top;html=1;shape=mxgraph.basic.x;fillColor=#f8cecc;strokeColor=#b85450;" vertex="1" parent="1">
          <mxGeometry x="430" y="1455" width="20" height="15" as="geometry" />
        </mxCell>
        <mxCell id="I3eww4QS5JIf8gdz_hNe-193" value="" style="verticalLabelPosition=bottom;verticalAlign=top;html=1;shape=mxgraph.basic.x;fillColor=#f8cecc;strokeColor=#b85450;" vertex="1" parent="1">
          <mxGeometry x="430" y="1435" width="20" height="15" as="geometry" />
        </mxCell>
        <mxCell id="I3eww4QS5JIf8gdz_hNe-194" value="" style="verticalLabelPosition=bottom;verticalAlign=top;html=1;shape=mxgraph.basic.x;fillColor=#f8cecc;strokeColor=#b85450;" vertex="1" parent="1">
          <mxGeometry x="430" y="1415" width="20" height="15" as="geometry" />
        </mxCell>
        <mxCell id="I3eww4QS5JIf8gdz_hNe-195" value="2" style="rounded=0;whiteSpace=wrap;html=1;" vertex="1" parent="1">
          <mxGeometry x="340" y="1372.5" width="120" height="20" as="geometry" />
        </mxCell>
        <mxCell id="I3eww4QS5JIf8gdz_hNe-196" value="2" style="rounded=0;whiteSpace=wrap;html=1;" vertex="1" parent="1">
          <mxGeometry x="340" y="1352.5" width="120" height="20" as="geometry" />
        </mxCell>
        <mxCell id="I3eww4QS5JIf8gdz_hNe-197" value="+" style="rounded=0;whiteSpace=wrap;html=1;" vertex="1" parent="1">
          <mxGeometry x="340" y="1332.5" width="120" height="20" as="geometry" />
        </mxCell>
        <mxCell id="I3eww4QS5JIf8gdz_hNe-198" value="" style="verticalLabelPosition=bottom;verticalAlign=top;html=1;shape=mxgraph.basic.x;fillColor=#f8cecc;strokeColor=#b85450;" vertex="1" parent="1">
          <mxGeometry x="430" y="1375" width="20" height="15" as="geometry" />
        </mxCell>
        <mxCell id="I3eww4QS5JIf8gdz_hNe-199" value="" style="verticalLabelPosition=bottom;verticalAlign=top;html=1;shape=mxgraph.basic.x;fillColor=#f8cecc;strokeColor=#b85450;" vertex="1" parent="1">
          <mxGeometry x="430" y="1355" width="20" height="15" as="geometry" />
        </mxCell>
        <mxCell id="I3eww4QS5JIf8gdz_hNe-200" value="" style="verticalLabelPosition=bottom;verticalAlign=top;html=1;shape=mxgraph.basic.x;fillColor=#f8cecc;strokeColor=#b85450;" vertex="1" parent="1">
          <mxGeometry x="430" y="1335" width="20" height="15" as="geometry" />
        </mxCell>
        <mxCell id="I3eww4QS5JIf8gdz_hNe-201" value="4" style="rounded=0;whiteSpace=wrap;html=1;" vertex="1" parent="1">
          <mxGeometry x="340" y="1315" width="120" height="20" as="geometry" />
        </mxCell>
        <mxCell id="I3eww4QS5JIf8gdz_hNe-202" value="2" style="rounded=0;whiteSpace=wrap;html=1;" vertex="1" parent="1">
          <mxGeometry x="340" y="1297.5" width="120" height="20" as="geometry" />
        </mxCell>
        <mxCell id="I3eww4QS5JIf8gdz_hNe-203" value="^" style="rounded=0;whiteSpace=wrap;html=1;" vertex="1" parent="1">
          <mxGeometry x="340" y="1277.5" width="120" height="20" as="geometry" />
        </mxCell>
        <mxCell id="I3eww4QS5JIf8gdz_hNe-204" value="" style="verticalLabelPosition=bottom;verticalAlign=top;html=1;shape=mxgraph.basic.x;fillColor=#f8cecc;strokeColor=#b85450;" vertex="1" parent="1">
          <mxGeometry x="430" y="1317.5" width="20" height="15" as="geometry" />
        </mxCell>
        <mxCell id="I3eww4QS5JIf8gdz_hNe-205" value="" style="verticalLabelPosition=bottom;verticalAlign=top;html=1;shape=mxgraph.basic.x;fillColor=#f8cecc;strokeColor=#b85450;" vertex="1" parent="1">
          <mxGeometry x="430" y="1300" width="20" height="15" as="geometry" />
        </mxCell>
        <mxCell id="I3eww4QS5JIf8gdz_hNe-206" value="" style="verticalLabelPosition=bottom;verticalAlign=top;html=1;shape=mxgraph.basic.x;fillColor=#f8cecc;strokeColor=#b85450;" vertex="1" parent="1">
          <mxGeometry x="430" y="1280" width="20" height="15" as="geometry" />
        </mxCell>
        <mxCell id="I3eww4QS5JIf8gdz_hNe-207" value="4^2=16" style="text;html=1;strokeColor=none;fillColor=none;align=center;verticalAlign=middle;whiteSpace=wrap;rounded=0;" vertex="1" parent="1">
          <mxGeometry x="370" y="1220" width="60" height="30" as="geometry" />
        </mxCell>
        <mxCell id="I3eww4QS5JIf8gdz_hNe-208" value="16" style="rounded=0;whiteSpace=wrap;html=1;" vertex="1" parent="1">
          <mxGeometry x="340" y="1257.5" width="120" height="20" as="geometry" />
        </mxCell>
        <mxCell id="I3eww4QS5JIf8gdz_hNe-209" value="4" style="rounded=0;whiteSpace=wrap;html=1;" vertex="1" parent="1">
          <mxGeometry x="500" y="1495" width="120" height="20" as="geometry" />
        </mxCell>
        <mxCell id="I3eww4QS5JIf8gdz_hNe-210" value="2" style="rounded=0;whiteSpace=wrap;html=1;" vertex="1" parent="1">
          <mxGeometry x="500" y="1475" width="120" height="20" as="geometry" />
        </mxCell>
        <mxCell id="I3eww4QS5JIf8gdz_hNe-211" value="+" style="rounded=0;whiteSpace=wrap;html=1;" vertex="1" parent="1">
          <mxGeometry x="500" y="1455" width="120" height="20" as="geometry" />
        </mxCell>
        <mxCell id="I3eww4QS5JIf8gdz_hNe-212" value="6" style="rounded=0;whiteSpace=wrap;html=1;" vertex="1" parent="1">
          <mxGeometry x="500" y="1435" width="120" height="20" as="geometry" />
        </mxCell>
        <mxCell id="I3eww4QS5JIf8gdz_hNe-213" value="" style="verticalLabelPosition=bottom;verticalAlign=top;html=1;shape=mxgraph.basic.x;fillColor=#f8cecc;strokeColor=#b85450;" vertex="1" parent="1">
          <mxGeometry x="590" y="1497.5" width="20" height="15" as="geometry" />
        </mxCell>
        <mxCell id="I3eww4QS5JIf8gdz_hNe-214" value="" style="verticalLabelPosition=bottom;verticalAlign=top;html=1;shape=mxgraph.basic.x;fillColor=#f8cecc;strokeColor=#b85450;" vertex="1" parent="1">
          <mxGeometry x="590" y="1477.5" width="20" height="15" as="geometry" />
        </mxCell>
        <mxCell id="I3eww4QS5JIf8gdz_hNe-215" value="" style="verticalLabelPosition=bottom;verticalAlign=top;html=1;shape=mxgraph.basic.x;fillColor=#f8cecc;strokeColor=#b85450;" vertex="1" parent="1">
          <mxGeometry x="590" y="1457.5" width="20" height="15" as="geometry" />
        </mxCell>
        <mxCell id="I3eww4QS5JIf8gdz_hNe-216" value="2" style="rounded=0;whiteSpace=wrap;html=1;" vertex="1" parent="1">
          <mxGeometry x="500" y="1415" width="120" height="20" as="geometry" />
        </mxCell>
        <mxCell id="I3eww4QS5JIf8gdz_hNe-217" value="2" style="rounded=0;whiteSpace=wrap;html=1;" vertex="1" parent="1">
          <mxGeometry x="500" y="1395" width="120" height="20" as="geometry" />
        </mxCell>
        <mxCell id="I3eww4QS5JIf8gdz_hNe-218" value="+" style="rounded=0;whiteSpace=wrap;html=1;" vertex="1" parent="1">
          <mxGeometry x="500" y="1375" width="120" height="20" as="geometry" />
        </mxCell>
        <mxCell id="I3eww4QS5JIf8gdz_hNe-219" value="" style="verticalLabelPosition=bottom;verticalAlign=top;html=1;shape=mxgraph.basic.x;fillColor=#f8cecc;strokeColor=#b85450;" vertex="1" parent="1">
          <mxGeometry x="590" y="1417.5" width="20" height="15" as="geometry" />
        </mxCell>
        <mxCell id="I3eww4QS5JIf8gdz_hNe-220" value="" style="verticalLabelPosition=bottom;verticalAlign=top;html=1;shape=mxgraph.basic.x;fillColor=#f8cecc;strokeColor=#b85450;" vertex="1" parent="1">
          <mxGeometry x="590" y="1397.5" width="20" height="15" as="geometry" />
        </mxCell>
        <mxCell id="I3eww4QS5JIf8gdz_hNe-221" value="" style="verticalLabelPosition=bottom;verticalAlign=top;html=1;shape=mxgraph.basic.x;fillColor=#f8cecc;strokeColor=#b85450;" vertex="1" parent="1">
          <mxGeometry x="590" y="1377.5" width="20" height="15" as="geometry" />
        </mxCell>
        <mxCell id="I3eww4QS5JIf8gdz_hNe-222" value="4" style="rounded=0;whiteSpace=wrap;html=1;" vertex="1" parent="1">
          <mxGeometry x="500" y="1357.5" width="120" height="20" as="geometry" />
        </mxCell>
        <mxCell id="I3eww4QS5JIf8gdz_hNe-223" value="2" style="rounded=0;whiteSpace=wrap;html=1;" vertex="1" parent="1">
          <mxGeometry x="500" y="1340" width="120" height="20" as="geometry" />
        </mxCell>
        <mxCell id="I3eww4QS5JIf8gdz_hNe-224" value="^" style="rounded=0;whiteSpace=wrap;html=1;" vertex="1" parent="1">
          <mxGeometry x="500" y="1320" width="120" height="20" as="geometry" />
        </mxCell>
        <mxCell id="I3eww4QS5JIf8gdz_hNe-225" value="" style="verticalLabelPosition=bottom;verticalAlign=top;html=1;shape=mxgraph.basic.x;fillColor=#f8cecc;strokeColor=#b85450;" vertex="1" parent="1">
          <mxGeometry x="590" y="1360" width="20" height="15" as="geometry" />
        </mxCell>
        <mxCell id="I3eww4QS5JIf8gdz_hNe-226" value="" style="verticalLabelPosition=bottom;verticalAlign=top;html=1;shape=mxgraph.basic.x;fillColor=#f8cecc;strokeColor=#b85450;" vertex="1" parent="1">
          <mxGeometry x="590" y="1342.5" width="20" height="15" as="geometry" />
        </mxCell>
        <mxCell id="I3eww4QS5JIf8gdz_hNe-227" value="" style="verticalLabelPosition=bottom;verticalAlign=top;html=1;shape=mxgraph.basic.x;fillColor=#f8cecc;strokeColor=#b85450;" vertex="1" parent="1">
          <mxGeometry x="590" y="1322.5" width="20" height="15" as="geometry" />
        </mxCell>
        <mxCell id="I3eww4QS5JIf8gdz_hNe-228" value="16" style="rounded=0;whiteSpace=wrap;html=1;" vertex="1" parent="1">
          <mxGeometry x="500" y="1300" width="120" height="20" as="geometry" />
        </mxCell>
        <mxCell id="I3eww4QS5JIf8gdz_hNe-229" value="*" style="rounded=0;whiteSpace=wrap;html=1;" vertex="1" parent="1">
          <mxGeometry x="500" y="1280" width="120" height="20" as="geometry" />
        </mxCell>
        <mxCell id="I3eww4QS5JIf8gdz_hNe-230" value="96" style="rounded=0;whiteSpace=wrap;html=1;" vertex="1" parent="1">
          <mxGeometry x="500" y="1260" width="120" height="20" as="geometry" />
        </mxCell>
        <mxCell id="I3eww4QS5JIf8gdz_hNe-231" value="" style="verticalLabelPosition=bottom;verticalAlign=top;html=1;shape=mxgraph.basic.x;fillColor=#f8cecc;strokeColor=#b85450;" vertex="1" parent="1">
          <mxGeometry x="590" y="1302.5" width="20" height="15" as="geometry" />
        </mxCell>
        <mxCell id="I3eww4QS5JIf8gdz_hNe-232" value="" style="verticalLabelPosition=bottom;verticalAlign=top;html=1;shape=mxgraph.basic.x;fillColor=#f8cecc;strokeColor=#b85450;" vertex="1" parent="1">
          <mxGeometry x="590" y="1437.5" width="20" height="15" as="geometry" />
        </mxCell>
        <mxCell id="I3eww4QS5JIf8gdz_hNe-233" value="" style="verticalLabelPosition=bottom;verticalAlign=top;html=1;shape=mxgraph.basic.x;fillColor=#f8cecc;strokeColor=#b85450;" vertex="1" parent="1">
          <mxGeometry x="590" y="1282.5" width="20" height="15" as="geometry" />
        </mxCell>
        <mxCell id="I3eww4QS5JIf8gdz_hNe-234" value="6*16=96" style="text;html=1;strokeColor=none;fillColor=none;align=center;verticalAlign=middle;whiteSpace=wrap;rounded=0;" vertex="1" parent="1">
          <mxGeometry x="530" y="1220" width="60" height="30" as="geometry" />
        </mxCell>
        <mxCell id="I3eww4QS5JIf8gdz_hNe-235" value="5" style="text;html=1;strokeColor=none;fillColor=none;align=center;verticalAlign=middle;whiteSpace=wrap;rounded=0;" vertex="1" parent="1">
          <mxGeometry x="30" y="1630" width="60" height="30" as="geometry" />
        </mxCell>
        <mxCell id="I3eww4QS5JIf8gdz_hNe-236" value="*" style="rounded=0;whiteSpace=wrap;html=1;" vertex="1" parent="1">
          <mxGeometry x="100" y="1690" width="120" height="20" as="geometry" />
        </mxCell>
        <mxCell id="I3eww4QS5JIf8gdz_hNe-237" value="(" style="rounded=0;whiteSpace=wrap;html=1;" vertex="1" parent="1">
          <mxGeometry x="100" y="1670" width="120" height="20" as="geometry" />
        </mxCell>
        <mxCell id="I3eww4QS5JIf8gdz_hNe-240" value="54" style="text;html=1;strokeColor=none;fillColor=none;align=center;verticalAlign=middle;whiteSpace=wrap;rounded=0;" vertex="1" parent="1">
          <mxGeometry x="130" y="1630" width="60" height="30" as="geometry" />
        </mxCell>
        <mxCell id="I3eww4QS5JIf8gdz_hNe-242" value="*" style="rounded=0;whiteSpace=wrap;html=1;" vertex="1" parent="1">
          <mxGeometry x="240" y="1710" width="120" height="20" as="geometry" />
        </mxCell>
        <mxCell id="I3eww4QS5JIf8gdz_hNe-243" value="(" style="rounded=0;whiteSpace=wrap;html=1;" vertex="1" parent="1">
          <mxGeometry x="240" y="1690" width="120" height="20" as="geometry" />
        </mxCell>
        <mxCell id="I3eww4QS5JIf8gdz_hNe-244" value="+" style="rounded=0;whiteSpace=wrap;html=1;" vertex="1" parent="1">
          <mxGeometry x="240" y="1670" width="120" height="20" as="geometry" />
        </mxCell>
        <mxCell id="I3eww4QS5JIf8gdz_hNe-245" value="" style="verticalLabelPosition=bottom;verticalAlign=top;html=1;shape=mxgraph.basic.x;fillColor=#f8cecc;strokeColor=#b85450;" vertex="1" parent="1">
          <mxGeometry x="320" y="1692.5" width="20" height="15" as="geometry" />
        </mxCell>
        <mxCell id="I3eww4QS5JIf8gdz_hNe-247" value="549" style="text;html=1;strokeColor=none;fillColor=none;align=center;verticalAlign=middle;whiteSpace=wrap;rounded=0;" vertex="1" parent="1">
          <mxGeometry x="270" y="1630" width="60" height="30" as="geometry" />
        </mxCell>
        <mxCell id="I3eww4QS5JIf8gdz_hNe-248" value="*" style="rounded=0;whiteSpace=wrap;html=1;" vertex="1" parent="1">
          <mxGeometry x="380" y="1730" width="120" height="20" as="geometry" />
        </mxCell>
        <mxCell id="I3eww4QS5JIf8gdz_hNe-249" value="(" style="rounded=0;whiteSpace=wrap;html=1;" vertex="1" parent="1">
          <mxGeometry x="380" y="1710" width="120" height="20" as="geometry" />
        </mxCell>
        <mxCell id="I3eww4QS5JIf8gdz_hNe-250" value="+" style="rounded=0;whiteSpace=wrap;html=1;" vertex="1" parent="1">
          <mxGeometry x="380" y="1690" width="120" height="20" as="geometry" />
        </mxCell>
        <mxCell id="I3eww4QS5JIf8gdz_hNe-251" value="" style="verticalLabelPosition=bottom;verticalAlign=top;html=1;shape=mxgraph.basic.x;fillColor=#f8cecc;strokeColor=#b85450;" vertex="1" parent="1">
          <mxGeometry x="460" y="1712.5" width="20" height="15" as="geometry" />
        </mxCell>
        <mxCell id="I3eww4QS5JIf8gdz_hNe-252" value=")" style="rounded=0;whiteSpace=wrap;html=1;" vertex="1" parent="1">
          <mxGeometry x="380" y="1670" width="120" height="20" as="geometry" />
        </mxCell>
        <mxCell id="I3eww4QS5JIf8gdz_hNe-253" value="" style="verticalLabelPosition=bottom;verticalAlign=top;html=1;shape=mxgraph.basic.x;fillColor=#f8cecc;strokeColor=#b85450;" vertex="1" parent="1">
          <mxGeometry x="460" y="1692.5" width="20" height="15" as="geometry" />
        </mxCell>
        <mxCell id="I3eww4QS5JIf8gdz_hNe-254" value="" style="verticalLabelPosition=bottom;verticalAlign=top;html=1;shape=mxgraph.basic.x;fillColor=#f8cecc;strokeColor=#b85450;" vertex="1" parent="1">
          <mxGeometry x="460" y="1672.5" width="20" height="15" as="geometry" />
        </mxCell>
        <mxCell id="I3eww4QS5JIf8gdz_hNe-255" value="549+" style="text;html=1;strokeColor=none;fillColor=none;align=center;verticalAlign=middle;whiteSpace=wrap;rounded=0;" vertex="1" parent="1">
          <mxGeometry x="410" y="1630" width="60" height="30" as="geometry" />
        </mxCell>
        <mxCell id="I3eww4QS5JIf8gdz_hNe-256" value="*" style="rounded=0;whiteSpace=wrap;html=1;" vertex="1" parent="1">
          <mxGeometry x="520" y="1750" width="120" height="20" as="geometry" />
        </mxCell>
        <mxCell id="I3eww4QS5JIf8gdz_hNe-257" value="(" style="rounded=0;whiteSpace=wrap;html=1;" vertex="1" parent="1">
          <mxGeometry x="520" y="1730" width="120" height="20" as="geometry" />
        </mxCell>
        <mxCell id="I3eww4QS5JIf8gdz_hNe-258" value="+" style="rounded=0;whiteSpace=wrap;html=1;" vertex="1" parent="1">
          <mxGeometry x="520" y="1710" width="120" height="20" as="geometry" />
        </mxCell>
        <mxCell id="I3eww4QS5JIf8gdz_hNe-259" value="" style="verticalLabelPosition=bottom;verticalAlign=top;html=1;shape=mxgraph.basic.x;fillColor=#f8cecc;strokeColor=#b85450;" vertex="1" parent="1">
          <mxGeometry x="600" y="1732.5" width="20" height="15" as="geometry" />
        </mxCell>
        <mxCell id="I3eww4QS5JIf8gdz_hNe-260" value=")" style="rounded=0;whiteSpace=wrap;html=1;" vertex="1" parent="1">
          <mxGeometry x="520" y="1690" width="120" height="20" as="geometry" />
        </mxCell>
        <mxCell id="I3eww4QS5JIf8gdz_hNe-261" value="" style="verticalLabelPosition=bottom;verticalAlign=top;html=1;shape=mxgraph.basic.x;fillColor=#f8cecc;strokeColor=#b85450;" vertex="1" parent="1">
          <mxGeometry x="600" y="1712.5" width="20" height="15" as="geometry" />
        </mxCell>
        <mxCell id="I3eww4QS5JIf8gdz_hNe-262" value="" style="verticalLabelPosition=bottom;verticalAlign=top;html=1;shape=mxgraph.basic.x;fillColor=#f8cecc;strokeColor=#b85450;" vertex="1" parent="1">
          <mxGeometry x="600" y="1692.5" width="20" height="15" as="geometry" />
        </mxCell>
        <mxCell id="I3eww4QS5JIf8gdz_hNe-263" value="*" style="rounded=0;whiteSpace=wrap;html=1;" vertex="1" parent="1">
          <mxGeometry x="520" y="1670" width="120" height="20" as="geometry" />
        </mxCell>
        <mxCell id="I3eww4QS5JIf8gdz_hNe-264" value="" style="endArrow=classic;startArrow=classic;html=1;rounded=0;entryX=1;entryY=0.75;entryDx=0;entryDy=0;exitX=1;exitY=0.5;exitDx=0;exitDy=0;" edge="1" parent="1" source="I3eww4QS5JIf8gdz_hNe-256" target="I3eww4QS5JIf8gdz_hNe-263">
          <mxGeometry width="50" height="50" relative="1" as="geometry">
            <mxPoint x="650" y="1757.5" as="sourcePoint" />
            <mxPoint x="700" y="1707.5" as="targetPoint" />
            <Array as="points">
              <mxPoint x="660" y="1720" />
            </Array>
          </mxGeometry>
        </mxCell>
        <mxCell id="I3eww4QS5JIf8gdz_hNe-265" value="" style="verticalLabelPosition=bottom;verticalAlign=top;html=1;shape=mxgraph.basic.x;fillColor=#f8cecc;strokeColor=#b85450;" vertex="1" parent="1">
          <mxGeometry x="600" y="1672.5" width="20" height="15" as="geometry" />
        </mxCell>
        <mxCell id="I3eww4QS5JIf8gdz_hNe-266" value="549+*" style="text;html=1;strokeColor=none;fillColor=none;align=center;verticalAlign=middle;whiteSpace=wrap;rounded=0;" vertex="1" parent="1">
          <mxGeometry x="550" y="1630" width="60" height="30" as="geometry" />
        </mxCell>
        <mxCell id="I3eww4QS5JIf8gdz_hNe-267" value="" style="shape=flexArrow;endArrow=classic;html=1;rounded=0;fillColor=#e1d5e7;strokeColor=#9673a6;width=8;endSize=6.33;" edge="1" parent="1">
          <mxGeometry width="50" height="50" relative="1" as="geometry">
            <mxPoint x="730" y="1800" as="sourcePoint" />
            <mxPoint x="730" y="1830" as="targetPoint" />
          </mxGeometry>
        </mxCell>
        <mxCell id="I3eww4QS5JIf8gdz_hNe-268" value="*" style="rounded=0;whiteSpace=wrap;html=1;" vertex="1" parent="1">
          <mxGeometry x="670" y="1770" width="120" height="20" as="geometry" />
        </mxCell>
        <mxCell id="I3eww4QS5JIf8gdz_hNe-269" value="(" style="rounded=0;whiteSpace=wrap;html=1;" vertex="1" parent="1">
          <mxGeometry x="670" y="1750" width="120" height="20" as="geometry" />
        </mxCell>
        <mxCell id="I3eww4QS5JIf8gdz_hNe-270" value="+" style="rounded=0;whiteSpace=wrap;html=1;" vertex="1" parent="1">
          <mxGeometry x="670" y="1730" width="120" height="20" as="geometry" />
        </mxCell>
        <mxCell id="I3eww4QS5JIf8gdz_hNe-271" value="" style="verticalLabelPosition=bottom;verticalAlign=top;html=1;shape=mxgraph.basic.x;fillColor=#f8cecc;strokeColor=#b85450;" vertex="1" parent="1">
          <mxGeometry x="750" y="1752.5" width="20" height="15" as="geometry" />
        </mxCell>
        <mxCell id="I3eww4QS5JIf8gdz_hNe-272" value=")" style="rounded=0;whiteSpace=wrap;html=1;" vertex="1" parent="1">
          <mxGeometry x="670" y="1710" width="120" height="20" as="geometry" />
        </mxCell>
        <mxCell id="I3eww4QS5JIf8gdz_hNe-273" value="" style="verticalLabelPosition=bottom;verticalAlign=top;html=1;shape=mxgraph.basic.x;fillColor=#f8cecc;strokeColor=#b85450;" vertex="1" parent="1">
          <mxGeometry x="750" y="1732.5" width="20" height="15" as="geometry" />
        </mxCell>
        <mxCell id="I3eww4QS5JIf8gdz_hNe-274" value="" style="verticalLabelPosition=bottom;verticalAlign=top;html=1;shape=mxgraph.basic.x;fillColor=#f8cecc;strokeColor=#b85450;" vertex="1" parent="1">
          <mxGeometry x="750" y="1712.5" width="20" height="15" as="geometry" />
        </mxCell>
        <mxCell id="I3eww4QS5JIf8gdz_hNe-275" value="*" style="rounded=0;whiteSpace=wrap;html=1;" vertex="1" parent="1">
          <mxGeometry x="670" y="1690" width="120" height="20" as="geometry" />
        </mxCell>
        <mxCell id="I3eww4QS5JIf8gdz_hNe-276" value="" style="verticalLabelPosition=bottom;verticalAlign=top;html=1;shape=mxgraph.basic.x;fillColor=#f8cecc;strokeColor=#b85450;" vertex="1" parent="1">
          <mxGeometry x="750" y="1692.5" width="20" height="15" as="geometry" />
        </mxCell>
        <mxCell id="I3eww4QS5JIf8gdz_hNe-277" value="(" style="rounded=0;whiteSpace=wrap;html=1;" vertex="1" parent="1">
          <mxGeometry x="670" y="1670" width="120" height="20" as="geometry" />
        </mxCell>
        <mxCell id="I3eww4QS5JIf8gdz_hNe-278" value="549+*8" style="text;html=1;strokeColor=none;fillColor=none;align=center;verticalAlign=middle;whiteSpace=wrap;rounded=0;" vertex="1" parent="1">
          <mxGeometry x="700" y="1630" width="60" height="30" as="geometry" />
        </mxCell>
        <mxCell id="I3eww4QS5JIf8gdz_hNe-279" value="*" style="rounded=0;whiteSpace=wrap;html=1;" vertex="1" parent="1">
          <mxGeometry x="670" y="1990" width="120" height="20" as="geometry" />
        </mxCell>
        <mxCell id="I3eww4QS5JIf8gdz_hNe-280" value="(" style="rounded=0;whiteSpace=wrap;html=1;" vertex="1" parent="1">
          <mxGeometry x="670" y="1970" width="120" height="20" as="geometry" />
        </mxCell>
        <mxCell id="I3eww4QS5JIf8gdz_hNe-281" value="+" style="rounded=0;whiteSpace=wrap;html=1;" vertex="1" parent="1">
          <mxGeometry x="670" y="1950" width="120" height="20" as="geometry" />
        </mxCell>
        <mxCell id="I3eww4QS5JIf8gdz_hNe-282" value="" style="verticalLabelPosition=bottom;verticalAlign=top;html=1;shape=mxgraph.basic.x;fillColor=#f8cecc;strokeColor=#b85450;" vertex="1" parent="1">
          <mxGeometry x="750" y="1972.5" width="20" height="15" as="geometry" />
        </mxCell>
        <mxCell id="I3eww4QS5JIf8gdz_hNe-283" value=")" style="rounded=0;whiteSpace=wrap;html=1;" vertex="1" parent="1">
          <mxGeometry x="670" y="1930" width="120" height="20" as="geometry" />
        </mxCell>
        <mxCell id="I3eww4QS5JIf8gdz_hNe-284" value="" style="verticalLabelPosition=bottom;verticalAlign=top;html=1;shape=mxgraph.basic.x;fillColor=#f8cecc;strokeColor=#b85450;" vertex="1" parent="1">
          <mxGeometry x="750" y="1952.5" width="20" height="15" as="geometry" />
        </mxCell>
        <mxCell id="I3eww4QS5JIf8gdz_hNe-285" value="" style="verticalLabelPosition=bottom;verticalAlign=top;html=1;shape=mxgraph.basic.x;fillColor=#f8cecc;strokeColor=#b85450;" vertex="1" parent="1">
          <mxGeometry x="750" y="1932.5" width="20" height="15" as="geometry" />
        </mxCell>
        <mxCell id="I3eww4QS5JIf8gdz_hNe-286" value="*" style="rounded=0;whiteSpace=wrap;html=1;" vertex="1" parent="1">
          <mxGeometry x="670" y="1910" width="120" height="20" as="geometry" />
        </mxCell>
        <mxCell id="I3eww4QS5JIf8gdz_hNe-287" value="" style="verticalLabelPosition=bottom;verticalAlign=top;html=1;shape=mxgraph.basic.x;fillColor=#f8cecc;strokeColor=#b85450;" vertex="1" parent="1">
          <mxGeometry x="750" y="1912.5" width="20" height="15" as="geometry" />
        </mxCell>
        <mxCell id="I3eww4QS5JIf8gdz_hNe-288" value="(" style="rounded=0;whiteSpace=wrap;html=1;" vertex="1" parent="1">
          <mxGeometry x="670" y="1890" width="120" height="20" as="geometry" />
        </mxCell>
        <mxCell id="I3eww4QS5JIf8gdz_hNe-289" value="/" style="rounded=0;whiteSpace=wrap;html=1;" vertex="1" parent="1">
          <mxGeometry x="670" y="1870" width="120" height="20" as="geometry" />
        </mxCell>
        <mxCell id="I3eww4QS5JIf8gdz_hNe-291" value="549+*82" style="text;html=1;strokeColor=none;fillColor=none;align=center;verticalAlign=middle;whiteSpace=wrap;rounded=0;" vertex="1" parent="1">
          <mxGeometry x="700" y="1840" width="60" height="30" as="geometry" />
        </mxCell>
        <mxCell id="I3eww4QS5JIf8gdz_hNe-292" value="*" style="rounded=0;whiteSpace=wrap;html=1;" vertex="1" parent="1">
          <mxGeometry x="530" y="2010" width="120" height="20" as="geometry" />
        </mxCell>
        <mxCell id="I3eww4QS5JIf8gdz_hNe-293" value="(" style="rounded=0;whiteSpace=wrap;html=1;" vertex="1" parent="1">
          <mxGeometry x="530" y="1990" width="120" height="20" as="geometry" />
        </mxCell>
        <mxCell id="I3eww4QS5JIf8gdz_hNe-294" value="+" style="rounded=0;whiteSpace=wrap;html=1;" vertex="1" parent="1">
          <mxGeometry x="530" y="1970" width="120" height="20" as="geometry" />
        </mxCell>
        <mxCell id="I3eww4QS5JIf8gdz_hNe-295" value="" style="verticalLabelPosition=bottom;verticalAlign=top;html=1;shape=mxgraph.basic.x;fillColor=#f8cecc;strokeColor=#b85450;" vertex="1" parent="1">
          <mxGeometry x="610" y="1992.5" width="20" height="15" as="geometry" />
        </mxCell>
        <mxCell id="I3eww4QS5JIf8gdz_hNe-296" value=")" style="rounded=0;whiteSpace=wrap;html=1;" vertex="1" parent="1">
          <mxGeometry x="530" y="1950" width="120" height="20" as="geometry" />
        </mxCell>
        <mxCell id="I3eww4QS5JIf8gdz_hNe-297" value="" style="verticalLabelPosition=bottom;verticalAlign=top;html=1;shape=mxgraph.basic.x;fillColor=#f8cecc;strokeColor=#b85450;" vertex="1" parent="1">
          <mxGeometry x="610" y="1972.5" width="20" height="15" as="geometry" />
        </mxCell>
        <mxCell id="I3eww4QS5JIf8gdz_hNe-298" value="" style="verticalLabelPosition=bottom;verticalAlign=top;html=1;shape=mxgraph.basic.x;fillColor=#f8cecc;strokeColor=#b85450;" vertex="1" parent="1">
          <mxGeometry x="610" y="1952.5" width="20" height="15" as="geometry" />
        </mxCell>
        <mxCell id="I3eww4QS5JIf8gdz_hNe-299" value="*" style="rounded=0;whiteSpace=wrap;html=1;" vertex="1" parent="1">
          <mxGeometry x="530" y="1930" width="120" height="20" as="geometry" />
        </mxCell>
        <mxCell id="I3eww4QS5JIf8gdz_hNe-300" value="" style="verticalLabelPosition=bottom;verticalAlign=top;html=1;shape=mxgraph.basic.x;fillColor=#f8cecc;strokeColor=#b85450;" vertex="1" parent="1">
          <mxGeometry x="610" y="1932.5" width="20" height="15" as="geometry" />
        </mxCell>
        <mxCell id="I3eww4QS5JIf8gdz_hNe-301" value="(" style="rounded=0;whiteSpace=wrap;html=1;" vertex="1" parent="1">
          <mxGeometry x="530" y="1910" width="120" height="20" as="geometry" />
        </mxCell>
        <mxCell id="I3eww4QS5JIf8gdz_hNe-302" value="/" style="rounded=0;whiteSpace=wrap;html=1;" vertex="1" parent="1">
          <mxGeometry x="530" y="1890" width="120" height="20" as="geometry" />
        </mxCell>
        <mxCell id="I3eww4QS5JIf8gdz_hNe-303" value=")" style="rounded=0;whiteSpace=wrap;html=1;" vertex="1" parent="1">
          <mxGeometry x="530" y="1870" width="120" height="20" as="geometry" />
        </mxCell>
        <mxCell id="I3eww4QS5JIf8gdz_hNe-304" value="" style="verticalLabelPosition=bottom;verticalAlign=top;html=1;shape=mxgraph.basic.x;fillColor=#f8cecc;strokeColor=#b85450;" vertex="1" parent="1">
          <mxGeometry x="610" y="1912.5" width="20" height="15" as="geometry" />
        </mxCell>
        <mxCell id="I3eww4QS5JIf8gdz_hNe-305" value="" style="verticalLabelPosition=bottom;verticalAlign=top;html=1;shape=mxgraph.basic.x;fillColor=#f8cecc;strokeColor=#b85450;" vertex="1" parent="1">
          <mxGeometry x="610" y="1892.5" width="20" height="15" as="geometry" />
        </mxCell>
        <mxCell id="I3eww4QS5JIf8gdz_hNe-306" value="" style="verticalLabelPosition=bottom;verticalAlign=top;html=1;shape=mxgraph.basic.x;fillColor=#f8cecc;strokeColor=#b85450;" vertex="1" parent="1">
          <mxGeometry x="610" y="1872.5" width="20" height="15" as="geometry" />
        </mxCell>
        <mxCell id="I3eww4QS5JIf8gdz_hNe-307" value="549+*82/" style="text;html=1;strokeColor=none;fillColor=none;align=center;verticalAlign=middle;whiteSpace=wrap;rounded=0;" vertex="1" parent="1">
          <mxGeometry x="560" y="1840" width="60" height="30" as="geometry" />
        </mxCell>
        <mxCell id="I3eww4QS5JIf8gdz_hNe-308" value="*" style="rounded=0;whiteSpace=wrap;html=1;" vertex="1" parent="1">
          <mxGeometry x="370" y="2010" width="120" height="20" as="geometry" />
        </mxCell>
        <mxCell id="I3eww4QS5JIf8gdz_hNe-309" value="(" style="rounded=0;whiteSpace=wrap;html=1;" vertex="1" parent="1">
          <mxGeometry x="370" y="1990" width="120" height="20" as="geometry" />
        </mxCell>
        <mxCell id="I3eww4QS5JIf8gdz_hNe-310" value="+" style="rounded=0;whiteSpace=wrap;html=1;" vertex="1" parent="1">
          <mxGeometry x="370" y="1970" width="120" height="20" as="geometry" />
        </mxCell>
        <mxCell id="I3eww4QS5JIf8gdz_hNe-311" value="" style="verticalLabelPosition=bottom;verticalAlign=top;html=1;shape=mxgraph.basic.x;fillColor=#f8cecc;strokeColor=#b85450;" vertex="1" parent="1">
          <mxGeometry x="450" y="1992.5" width="20" height="15" as="geometry" />
        </mxCell>
        <mxCell id="I3eww4QS5JIf8gdz_hNe-312" value=")" style="rounded=0;whiteSpace=wrap;html=1;" vertex="1" parent="1">
          <mxGeometry x="370" y="1950" width="120" height="20" as="geometry" />
        </mxCell>
        <mxCell id="I3eww4QS5JIf8gdz_hNe-313" value="" style="verticalLabelPosition=bottom;verticalAlign=top;html=1;shape=mxgraph.basic.x;fillColor=#f8cecc;strokeColor=#b85450;" vertex="1" parent="1">
          <mxGeometry x="450" y="1972.5" width="20" height="15" as="geometry" />
        </mxCell>
        <mxCell id="I3eww4QS5JIf8gdz_hNe-314" value="" style="verticalLabelPosition=bottom;verticalAlign=top;html=1;shape=mxgraph.basic.x;fillColor=#f8cecc;strokeColor=#b85450;" vertex="1" parent="1">
          <mxGeometry x="450" y="1952.5" width="20" height="15" as="geometry" />
        </mxCell>
        <mxCell id="I3eww4QS5JIf8gdz_hNe-315" value="*" style="rounded=0;whiteSpace=wrap;html=1;" vertex="1" parent="1">
          <mxGeometry x="370" y="1930" width="120" height="20" as="geometry" />
        </mxCell>
        <mxCell id="I3eww4QS5JIf8gdz_hNe-316" value="" style="verticalLabelPosition=bottom;verticalAlign=top;html=1;shape=mxgraph.basic.x;fillColor=#f8cecc;strokeColor=#b85450;" vertex="1" parent="1">
          <mxGeometry x="450" y="1932.5" width="20" height="15" as="geometry" />
        </mxCell>
        <mxCell id="I3eww4QS5JIf8gdz_hNe-317" value="(" style="rounded=0;whiteSpace=wrap;html=1;" vertex="1" parent="1">
          <mxGeometry x="370" y="1910" width="120" height="20" as="geometry" />
        </mxCell>
        <mxCell id="I3eww4QS5JIf8gdz_hNe-318" value="/" style="rounded=0;whiteSpace=wrap;html=1;" vertex="1" parent="1">
          <mxGeometry x="370" y="1890" width="120" height="20" as="geometry" />
        </mxCell>
        <mxCell id="I3eww4QS5JIf8gdz_hNe-319" value=")" style="rounded=0;whiteSpace=wrap;html=1;" vertex="1" parent="1">
          <mxGeometry x="370" y="1870" width="120" height="20" as="geometry" />
        </mxCell>
        <mxCell id="I3eww4QS5JIf8gdz_hNe-320" value="" style="verticalLabelPosition=bottom;verticalAlign=top;html=1;shape=mxgraph.basic.x;fillColor=#f8cecc;strokeColor=#b85450;" vertex="1" parent="1">
          <mxGeometry x="450" y="1912.5" width="20" height="15" as="geometry" />
        </mxCell>
        <mxCell id="I3eww4QS5JIf8gdz_hNe-321" value="" style="verticalLabelPosition=bottom;verticalAlign=top;html=1;shape=mxgraph.basic.x;fillColor=#f8cecc;strokeColor=#b85450;" vertex="1" parent="1">
          <mxGeometry x="450" y="1892.5" width="20" height="15" as="geometry" />
        </mxCell>
        <mxCell id="I3eww4QS5JIf8gdz_hNe-322" value="" style="verticalLabelPosition=bottom;verticalAlign=top;html=1;shape=mxgraph.basic.x;fillColor=#f8cecc;strokeColor=#b85450;" vertex="1" parent="1">
          <mxGeometry x="450" y="1872.5" width="20" height="15" as="geometry" />
        </mxCell>
        <mxCell id="I3eww4QS5JIf8gdz_hNe-323" value="" style="verticalLabelPosition=bottom;verticalAlign=top;html=1;shape=mxgraph.basic.x;fillColor=#f8cecc;strokeColor=#b85450;" vertex="1" parent="1">
          <mxGeometry x="450" y="2012.5" width="20" height="15" as="geometry" />
        </mxCell>
        <mxCell id="I3eww4QS5JIf8gdz_hNe-324" value="549+*82/*" style="text;html=1;strokeColor=none;fillColor=none;align=center;verticalAlign=middle;whiteSpace=wrap;rounded=0;" vertex="1" parent="1">
          <mxGeometry x="400" y="1840" width="60" height="30" as="geometry" />
        </mxCell>
        <mxCell id="I3eww4QS5JIf8gdz_hNe-325" value="5" style="rounded=0;whiteSpace=wrap;html=1;" vertex="1" parent="1">
          <mxGeometry x="50" y="2220" width="120" height="20" as="geometry" />
        </mxCell>
        <mxCell id="I3eww4QS5JIf8gdz_hNe-326" value="4" style="rounded=0;whiteSpace=wrap;html=1;" vertex="1" parent="1">
          <mxGeometry x="50" y="2200" width="120" height="20" as="geometry" />
        </mxCell>
        <mxCell id="I3eww4QS5JIf8gdz_hNe-327" value="9" style="rounded=0;whiteSpace=wrap;html=1;" vertex="1" parent="1">
          <mxGeometry x="50" y="2180" width="120" height="20" as="geometry" />
        </mxCell>
        <mxCell id="I3eww4QS5JIf8gdz_hNe-328" value="+" style="rounded=0;whiteSpace=wrap;html=1;" vertex="1" parent="1">
          <mxGeometry x="50" y="2160" width="120" height="20" as="geometry" />
        </mxCell>
        <mxCell id="I3eww4QS5JIf8gdz_hNe-329" value="13" style="rounded=0;whiteSpace=wrap;html=1;" vertex="1" parent="1">
          <mxGeometry x="50" y="2140" width="120" height="20" as="geometry" />
        </mxCell>
        <mxCell id="I3eww4QS5JIf8gdz_hNe-330" value="" style="verticalLabelPosition=bottom;verticalAlign=top;html=1;shape=mxgraph.basic.x;fillColor=#f8cecc;strokeColor=#b85450;" vertex="1" parent="1">
          <mxGeometry x="140" y="2202.5" width="20" height="15" as="geometry" />
        </mxCell>
        <mxCell id="I3eww4QS5JIf8gdz_hNe-331" value="" style="verticalLabelPosition=bottom;verticalAlign=top;html=1;shape=mxgraph.basic.x;fillColor=#f8cecc;strokeColor=#b85450;" vertex="1" parent="1">
          <mxGeometry x="140" y="2182.5" width="20" height="15" as="geometry" />
        </mxCell>
        <mxCell id="I3eww4QS5JIf8gdz_hNe-332" value="" style="verticalLabelPosition=bottom;verticalAlign=top;html=1;shape=mxgraph.basic.x;fillColor=#f8cecc;strokeColor=#b85450;" vertex="1" parent="1">
          <mxGeometry x="140" y="2162.5" width="20" height="15" as="geometry" />
        </mxCell>
        <mxCell id="I3eww4QS5JIf8gdz_hNe-333" value="4+9=13" style="text;html=1;strokeColor=none;fillColor=none;align=center;verticalAlign=middle;whiteSpace=wrap;rounded=0;" vertex="1" parent="1">
          <mxGeometry x="80" y="2100" width="60" height="30" as="geometry" />
        </mxCell>
        <mxCell id="I3eww4QS5JIf8gdz_hNe-334" value="5" style="rounded=0;whiteSpace=wrap;html=1;" vertex="1" parent="1">
          <mxGeometry x="200" y="2260" width="120" height="20" as="geometry" />
        </mxCell>
        <mxCell id="I3eww4QS5JIf8gdz_hNe-335" value="4" style="rounded=0;whiteSpace=wrap;html=1;" vertex="1" parent="1">
          <mxGeometry x="200" y="2240" width="120" height="20" as="geometry" />
        </mxCell>
        <mxCell id="I3eww4QS5JIf8gdz_hNe-336" value="9" style="rounded=0;whiteSpace=wrap;html=1;" vertex="1" parent="1">
          <mxGeometry x="200" y="2220" width="120" height="20" as="geometry" />
        </mxCell>
        <mxCell id="I3eww4QS5JIf8gdz_hNe-337" value="+" style="rounded=0;whiteSpace=wrap;html=1;" vertex="1" parent="1">
          <mxGeometry x="200" y="2200" width="120" height="20" as="geometry" />
        </mxCell>
        <mxCell id="I3eww4QS5JIf8gdz_hNe-338" value="13" style="rounded=0;whiteSpace=wrap;html=1;" vertex="1" parent="1">
          <mxGeometry x="200" y="2180" width="120" height="20" as="geometry" />
        </mxCell>
        <mxCell id="I3eww4QS5JIf8gdz_hNe-339" value="" style="verticalLabelPosition=bottom;verticalAlign=top;html=1;shape=mxgraph.basic.x;fillColor=#f8cecc;strokeColor=#b85450;" vertex="1" parent="1">
          <mxGeometry x="290" y="2242.5" width="20" height="15" as="geometry" />
        </mxCell>
        <mxCell id="I3eww4QS5JIf8gdz_hNe-340" value="" style="verticalLabelPosition=bottom;verticalAlign=top;html=1;shape=mxgraph.basic.x;fillColor=#f8cecc;strokeColor=#b85450;" vertex="1" parent="1">
          <mxGeometry x="290" y="2222.5" width="20" height="15" as="geometry" />
        </mxCell>
        <mxCell id="I3eww4QS5JIf8gdz_hNe-341" value="" style="verticalLabelPosition=bottom;verticalAlign=top;html=1;shape=mxgraph.basic.x;fillColor=#f8cecc;strokeColor=#b85450;" vertex="1" parent="1">
          <mxGeometry x="290" y="2202.5" width="20" height="15" as="geometry" />
        </mxCell>
        <mxCell id="I3eww4QS5JIf8gdz_hNe-342" value="*" style="rounded=0;whiteSpace=wrap;html=1;" vertex="1" parent="1">
          <mxGeometry x="200" y="2160" width="120" height="20" as="geometry" />
        </mxCell>
        <mxCell id="I3eww4QS5JIf8gdz_hNe-343" value="65" style="rounded=0;whiteSpace=wrap;html=1;" vertex="1" parent="1">
          <mxGeometry x="200" y="2140" width="120" height="20" as="geometry" />
        </mxCell>
        <mxCell id="I3eww4QS5JIf8gdz_hNe-344" value="" style="verticalLabelPosition=bottom;verticalAlign=top;html=1;shape=mxgraph.basic.x;fillColor=#f8cecc;strokeColor=#b85450;" vertex="1" parent="1">
          <mxGeometry x="290" y="2262.5" width="20" height="15" as="geometry" />
        </mxCell>
        <mxCell id="I3eww4QS5JIf8gdz_hNe-345" value="" style="verticalLabelPosition=bottom;verticalAlign=top;html=1;shape=mxgraph.basic.x;fillColor=#f8cecc;strokeColor=#b85450;" vertex="1" parent="1">
          <mxGeometry x="290" y="2182.5" width="20" height="15" as="geometry" />
        </mxCell>
        <mxCell id="I3eww4QS5JIf8gdz_hNe-346" value="" style="verticalLabelPosition=bottom;verticalAlign=top;html=1;shape=mxgraph.basic.x;fillColor=#f8cecc;strokeColor=#b85450;" vertex="1" parent="1">
          <mxGeometry x="290" y="2162.5" width="20" height="15" as="geometry" />
        </mxCell>
        <mxCell id="I3eww4QS5JIf8gdz_hNe-347" value="5*13=65" style="text;html=1;strokeColor=none;fillColor=none;align=center;verticalAlign=middle;whiteSpace=wrap;rounded=0;" vertex="1" parent="1">
          <mxGeometry x="230" y="2100" width="60" height="30" as="geometry" />
        </mxCell>
        <mxCell id="I3eww4QS5JIf8gdz_hNe-348" value="5" style="rounded=0;whiteSpace=wrap;html=1;" vertex="1" parent="1">
          <mxGeometry x="340" y="2340" width="120" height="20" as="geometry" />
        </mxCell>
        <mxCell id="I3eww4QS5JIf8gdz_hNe-349" value="4" style="rounded=0;whiteSpace=wrap;html=1;" vertex="1" parent="1">
          <mxGeometry x="340" y="2320" width="120" height="20" as="geometry" />
        </mxCell>
        <mxCell id="I3eww4QS5JIf8gdz_hNe-350" value="9" style="rounded=0;whiteSpace=wrap;html=1;" vertex="1" parent="1">
          <mxGeometry x="340" y="2300" width="120" height="20" as="geometry" />
        </mxCell>
        <mxCell id="I3eww4QS5JIf8gdz_hNe-351" value="+" style="rounded=0;whiteSpace=wrap;html=1;" vertex="1" parent="1">
          <mxGeometry x="340" y="2280" width="120" height="20" as="geometry" />
        </mxCell>
        <mxCell id="I3eww4QS5JIf8gdz_hNe-352" value="13" style="rounded=0;whiteSpace=wrap;html=1;" vertex="1" parent="1">
          <mxGeometry x="340" y="2260" width="120" height="20" as="geometry" />
        </mxCell>
        <mxCell id="I3eww4QS5JIf8gdz_hNe-353" value="" style="verticalLabelPosition=bottom;verticalAlign=top;html=1;shape=mxgraph.basic.x;fillColor=#f8cecc;strokeColor=#b85450;" vertex="1" parent="1">
          <mxGeometry x="430" y="2322.5" width="20" height="15" as="geometry" />
        </mxCell>
        <mxCell id="I3eww4QS5JIf8gdz_hNe-354" value="" style="verticalLabelPosition=bottom;verticalAlign=top;html=1;shape=mxgraph.basic.x;fillColor=#f8cecc;strokeColor=#b85450;" vertex="1" parent="1">
          <mxGeometry x="430" y="2302.5" width="20" height="15" as="geometry" />
        </mxCell>
        <mxCell id="I3eww4QS5JIf8gdz_hNe-355" value="" style="verticalLabelPosition=bottom;verticalAlign=top;html=1;shape=mxgraph.basic.x;fillColor=#f8cecc;strokeColor=#b85450;" vertex="1" parent="1">
          <mxGeometry x="430" y="2282.5" width="20" height="15" as="geometry" />
        </mxCell>
        <mxCell id="I3eww4QS5JIf8gdz_hNe-356" value="*" style="rounded=0;whiteSpace=wrap;html=1;" vertex="1" parent="1">
          <mxGeometry x="340" y="2240" width="120" height="20" as="geometry" />
        </mxCell>
        <mxCell id="I3eww4QS5JIf8gdz_hNe-357" value="65" style="rounded=0;whiteSpace=wrap;html=1;" vertex="1" parent="1">
          <mxGeometry x="340" y="2220" width="120" height="20" as="geometry" />
        </mxCell>
        <mxCell id="I3eww4QS5JIf8gdz_hNe-358" value="" style="verticalLabelPosition=bottom;verticalAlign=top;html=1;shape=mxgraph.basic.x;fillColor=#f8cecc;strokeColor=#b85450;" vertex="1" parent="1">
          <mxGeometry x="430" y="2342.5" width="20" height="15" as="geometry" />
        </mxCell>
        <mxCell id="I3eww4QS5JIf8gdz_hNe-359" value="" style="verticalLabelPosition=bottom;verticalAlign=top;html=1;shape=mxgraph.basic.x;fillColor=#f8cecc;strokeColor=#b85450;" vertex="1" parent="1">
          <mxGeometry x="430" y="2262.5" width="20" height="15" as="geometry" />
        </mxCell>
        <mxCell id="I3eww4QS5JIf8gdz_hNe-360" value="" style="verticalLabelPosition=bottom;verticalAlign=top;html=1;shape=mxgraph.basic.x;fillColor=#f8cecc;strokeColor=#b85450;" vertex="1" parent="1">
          <mxGeometry x="430" y="2242.5" width="20" height="15" as="geometry" />
        </mxCell>
        <mxCell id="I3eww4QS5JIf8gdz_hNe-361" value="8" style="rounded=0;whiteSpace=wrap;html=1;" vertex="1" parent="1">
          <mxGeometry x="340" y="2200" width="120" height="20" as="geometry" />
        </mxCell>
        <mxCell id="I3eww4QS5JIf8gdz_hNe-362" value="2" style="rounded=0;whiteSpace=wrap;html=1;" vertex="1" parent="1">
          <mxGeometry x="340" y="2180" width="120" height="20" as="geometry" />
        </mxCell>
        <mxCell id="I3eww4QS5JIf8gdz_hNe-363" value="/" style="rounded=0;whiteSpace=wrap;html=1;" vertex="1" parent="1">
          <mxGeometry x="340" y="2160" width="120" height="20" as="geometry" />
        </mxCell>
        <mxCell id="I3eww4QS5JIf8gdz_hNe-364" value="" style="verticalLabelPosition=bottom;verticalAlign=top;html=1;shape=mxgraph.basic.x;fillColor=#f8cecc;strokeColor=#b85450;" vertex="1" parent="1">
          <mxGeometry x="430" y="2202.5" width="20" height="15" as="geometry" />
        </mxCell>
        <mxCell id="I3eww4QS5JIf8gdz_hNe-365" value="" style="verticalLabelPosition=bottom;verticalAlign=top;html=1;shape=mxgraph.basic.x;fillColor=#f8cecc;strokeColor=#b85450;" vertex="1" parent="1">
          <mxGeometry x="430" y="2182.5" width="20" height="15" as="geometry" />
        </mxCell>
        <mxCell id="I3eww4QS5JIf8gdz_hNe-366" value="" style="verticalLabelPosition=bottom;verticalAlign=top;html=1;shape=mxgraph.basic.x;fillColor=#f8cecc;strokeColor=#b85450;" vertex="1" parent="1">
          <mxGeometry x="430" y="2162.5" width="20" height="15" as="geometry" />
        </mxCell>
        <mxCell id="I3eww4QS5JIf8gdz_hNe-367" value="8/2=4" style="text;html=1;strokeColor=none;fillColor=none;align=center;verticalAlign=middle;whiteSpace=wrap;rounded=0;" vertex="1" parent="1">
          <mxGeometry x="370" y="2100" width="60" height="30" as="geometry" />
        </mxCell>
        <mxCell id="I3eww4QS5JIf8gdz_hNe-368" value="4" style="rounded=0;whiteSpace=wrap;html=1;" vertex="1" parent="1">
          <mxGeometry x="340" y="2140" width="120" height="20" as="geometry" />
        </mxCell>
        <mxCell id="I3eww4QS5JIf8gdz_hNe-369" value="5" style="rounded=0;whiteSpace=wrap;html=1;" vertex="1" parent="1">
          <mxGeometry x="490" y="2377.5" width="120" height="20" as="geometry" />
        </mxCell>
        <mxCell id="I3eww4QS5JIf8gdz_hNe-370" value="4" style="rounded=0;whiteSpace=wrap;html=1;" vertex="1" parent="1">
          <mxGeometry x="490" y="2357.5" width="120" height="20" as="geometry" />
        </mxCell>
        <mxCell id="I3eww4QS5JIf8gdz_hNe-371" value="9" style="rounded=0;whiteSpace=wrap;html=1;" vertex="1" parent="1">
          <mxGeometry x="490" y="2337.5" width="120" height="20" as="geometry" />
        </mxCell>
        <mxCell id="I3eww4QS5JIf8gdz_hNe-372" value="+" style="rounded=0;whiteSpace=wrap;html=1;" vertex="1" parent="1">
          <mxGeometry x="490" y="2317.5" width="120" height="20" as="geometry" />
        </mxCell>
        <mxCell id="I3eww4QS5JIf8gdz_hNe-373" value="13" style="rounded=0;whiteSpace=wrap;html=1;" vertex="1" parent="1">
          <mxGeometry x="490" y="2297.5" width="120" height="20" as="geometry" />
        </mxCell>
        <mxCell id="I3eww4QS5JIf8gdz_hNe-374" value="" style="verticalLabelPosition=bottom;verticalAlign=top;html=1;shape=mxgraph.basic.x;fillColor=#f8cecc;strokeColor=#b85450;" vertex="1" parent="1">
          <mxGeometry x="580" y="2360" width="20" height="15" as="geometry" />
        </mxCell>
        <mxCell id="I3eww4QS5JIf8gdz_hNe-375" value="" style="verticalLabelPosition=bottom;verticalAlign=top;html=1;shape=mxgraph.basic.x;fillColor=#f8cecc;strokeColor=#b85450;" vertex="1" parent="1">
          <mxGeometry x="580" y="2340" width="20" height="15" as="geometry" />
        </mxCell>
        <mxCell id="I3eww4QS5JIf8gdz_hNe-376" value="" style="verticalLabelPosition=bottom;verticalAlign=top;html=1;shape=mxgraph.basic.x;fillColor=#f8cecc;strokeColor=#b85450;" vertex="1" parent="1">
          <mxGeometry x="580" y="2320" width="20" height="15" as="geometry" />
        </mxCell>
        <mxCell id="I3eww4QS5JIf8gdz_hNe-377" value="*" style="rounded=0;whiteSpace=wrap;html=1;" vertex="1" parent="1">
          <mxGeometry x="490" y="2277.5" width="120" height="20" as="geometry" />
        </mxCell>
        <mxCell id="I3eww4QS5JIf8gdz_hNe-378" value="65" style="rounded=0;whiteSpace=wrap;html=1;" vertex="1" parent="1">
          <mxGeometry x="490" y="2257.5" width="120" height="20" as="geometry" />
        </mxCell>
        <mxCell id="I3eww4QS5JIf8gdz_hNe-379" value="" style="verticalLabelPosition=bottom;verticalAlign=top;html=1;shape=mxgraph.basic.x;fillColor=#f8cecc;strokeColor=#b85450;" vertex="1" parent="1">
          <mxGeometry x="580" y="2380" width="20" height="15" as="geometry" />
        </mxCell>
        <mxCell id="I3eww4QS5JIf8gdz_hNe-380" value="" style="verticalLabelPosition=bottom;verticalAlign=top;html=1;shape=mxgraph.basic.x;fillColor=#f8cecc;strokeColor=#b85450;" vertex="1" parent="1">
          <mxGeometry x="580" y="2300" width="20" height="15" as="geometry" />
        </mxCell>
        <mxCell id="I3eww4QS5JIf8gdz_hNe-381" value="" style="verticalLabelPosition=bottom;verticalAlign=top;html=1;shape=mxgraph.basic.x;fillColor=#f8cecc;strokeColor=#b85450;" vertex="1" parent="1">
          <mxGeometry x="580" y="2280" width="20" height="15" as="geometry" />
        </mxCell>
        <mxCell id="I3eww4QS5JIf8gdz_hNe-382" value="8" style="rounded=0;whiteSpace=wrap;html=1;" vertex="1" parent="1">
          <mxGeometry x="490" y="2237.5" width="120" height="20" as="geometry" />
        </mxCell>
        <mxCell id="I3eww4QS5JIf8gdz_hNe-383" value="2" style="rounded=0;whiteSpace=wrap;html=1;" vertex="1" parent="1">
          <mxGeometry x="490" y="2217.5" width="120" height="20" as="geometry" />
        </mxCell>
        <mxCell id="I3eww4QS5JIf8gdz_hNe-384" value="/" style="rounded=0;whiteSpace=wrap;html=1;" vertex="1" parent="1">
          <mxGeometry x="490" y="2197.5" width="120" height="20" as="geometry" />
        </mxCell>
        <mxCell id="I3eww4QS5JIf8gdz_hNe-385" value="" style="verticalLabelPosition=bottom;verticalAlign=top;html=1;shape=mxgraph.basic.x;fillColor=#f8cecc;strokeColor=#b85450;" vertex="1" parent="1">
          <mxGeometry x="580" y="2240" width="20" height="15" as="geometry" />
        </mxCell>
        <mxCell id="I3eww4QS5JIf8gdz_hNe-386" value="" style="verticalLabelPosition=bottom;verticalAlign=top;html=1;shape=mxgraph.basic.x;fillColor=#f8cecc;strokeColor=#b85450;" vertex="1" parent="1">
          <mxGeometry x="580" y="2220" width="20" height="15" as="geometry" />
        </mxCell>
        <mxCell id="I3eww4QS5JIf8gdz_hNe-387" value="" style="verticalLabelPosition=bottom;verticalAlign=top;html=1;shape=mxgraph.basic.x;fillColor=#f8cecc;strokeColor=#b85450;" vertex="1" parent="1">
          <mxGeometry x="580" y="2200" width="20" height="15" as="geometry" />
        </mxCell>
        <mxCell id="I3eww4QS5JIf8gdz_hNe-388" value="4" style="rounded=0;whiteSpace=wrap;html=1;" vertex="1" parent="1">
          <mxGeometry x="490" y="2177.5" width="120" height="20" as="geometry" />
        </mxCell>
        <mxCell id="I3eww4QS5JIf8gdz_hNe-389" value="*" style="rounded=0;whiteSpace=wrap;html=1;" vertex="1" parent="1">
          <mxGeometry x="490" y="2157.5" width="120" height="20" as="geometry" />
        </mxCell>
        <mxCell id="I3eww4QS5JIf8gdz_hNe-390" value="260" style="rounded=0;whiteSpace=wrap;html=1;" vertex="1" parent="1">
          <mxGeometry x="490" y="2137.5" width="120" height="20" as="geometry" />
        </mxCell>
        <mxCell id="I3eww4QS5JIf8gdz_hNe-391" value="" style="verticalLabelPosition=bottom;verticalAlign=top;html=1;shape=mxgraph.basic.x;fillColor=#f8cecc;strokeColor=#b85450;" vertex="1" parent="1">
          <mxGeometry x="580" y="2260" width="20" height="15" as="geometry" />
        </mxCell>
        <mxCell id="I3eww4QS5JIf8gdz_hNe-392" value="" style="verticalLabelPosition=bottom;verticalAlign=top;html=1;shape=mxgraph.basic.x;fillColor=#f8cecc;strokeColor=#b85450;" vertex="1" parent="1">
          <mxGeometry x="580" y="2180" width="20" height="15" as="geometry" />
        </mxCell>
        <mxCell id="I3eww4QS5JIf8gdz_hNe-393" value="" style="verticalLabelPosition=bottom;verticalAlign=top;html=1;shape=mxgraph.basic.x;fillColor=#f8cecc;strokeColor=#b85450;" vertex="1" parent="1">
          <mxGeometry x="580" y="2160" width="20" height="15" as="geometry" />
        </mxCell>
        <mxCell id="I3eww4QS5JIf8gdz_hNe-394" value="65*4=260" style="text;html=1;strokeColor=none;fillColor=none;align=center;verticalAlign=middle;whiteSpace=wrap;rounded=0;" vertex="1" parent="1">
          <mxGeometry x="520" y="2100" width="60" height="30" as="geometry" />
        </mxCell>
      </root>
    </mxGraphModel>
  </diagram>
</mxfile>
